<svg width="601" height="172" viewBox="0 0 601 172" fill="none" xmlns="http://www.w3.org/2000/svg">
<rect x="17" y="33" width="584" height="131" rx="15" fill="#42EA72"/>
<rect y="22" width="584" height="131" rx="15" fill="white"/>
<path d="M28.36 58.32V72H24.22V50.7H27.52L38.53 64.74V50.73H42.67V72H39.22L28.36 58.32ZM47.1009 72V50.7H51.2409V72H47.1009ZM54.3948 61.2C54.3948 59.9 54.6248 58.63 55.0848 57.39C55.5648 56.13 56.2548 54.99 57.1548 53.97C58.0548 52.93 59.1548 52.11 60.4548 51.51C61.7548 50.89 63.2348 50.58 64.8948 50.58C66.8548 50.58 68.5448 51.01 69.9648 51.87C71.4048 52.73 72.4748 53.85 73.1748 55.23L69.9948 57.42C69.6348 56.62 69.1648 55.99 68.5848 55.53C68.0048 55.05 67.3848 54.72 66.7248 54.54C66.0648 54.34 65.4148 54.24 64.7748 54.24C63.7348 54.24 62.8248 54.45 62.0448 54.87C61.2848 55.29 60.6448 55.84 60.1248 56.52C59.6048 57.2 59.2148 57.96 58.9548 58.8C58.7148 59.64 58.5948 60.48 58.5948 61.32C58.5948 62.26 58.7448 63.17 59.0448 64.05C59.3448 64.91 59.7648 65.68 60.3048 66.36C60.8648 67.02 61.5248 67.55 62.2848 67.95C63.0648 68.33 63.9148 68.52 64.8348 68.52C65.4948 68.52 66.1648 68.41 66.8448 68.19C67.5248 67.97 68.1548 67.62 68.7348 67.14C69.3148 66.66 69.7648 66.04 70.0848 65.28L73.4748 67.23C73.0548 68.29 72.3648 69.19 71.4048 69.93C70.4648 70.67 69.4048 71.23 68.2248 71.61C67.0448 71.99 65.8748 72.18 64.7148 72.18C63.1948 72.18 61.8048 71.87 60.5448 71.25C59.2848 70.61 58.1948 69.77 57.2748 68.73C56.3748 67.67 55.6648 66.49 55.1448 65.19C54.6448 63.87 54.3948 62.54 54.3948 61.2ZM76.2512 72V50.73H80.3912V60.84L89.3312 50.7H93.8912L85.7312 60.15L94.4012 72H89.7212L83.0912 62.82L80.3912 65.64V72H76.2512ZM101.275 67.65C101.535 67.83 101.995 68.05 102.655 68.31C103.315 68.55 104.095 68.67 104.995 68.67C105.775 68.67 106.415 68.54 106.915 68.28C107.415 68 107.795 67.59 108.055 67.05C108.335 66.51 108.515 65.81 108.595 64.95C108.695 64.09 108.745 63.06 108.745 61.86V50.7H112.885V61.53C112.885 63.13 112.795 64.59 112.615 65.91C112.435 67.23 112.085 68.37 111.565 69.33C111.045 70.29 110.255 71.03 109.195 71.55C108.155 72.07 106.765 72.33 105.025 72.33C104.065 72.33 103.205 72.22 102.445 72C101.685 71.78 100.985 71.45 100.345 71.01L101.275 67.65ZM126.181 72.15C124.621 72.15 123.201 71.85 121.921 71.25C120.661 70.65 119.571 69.84 118.651 68.82C117.751 67.78 117.051 66.62 116.551 65.34C116.051 64.04 115.801 62.71 115.801 61.35C115.801 59.93 116.061 58.58 116.581 57.3C117.121 56 117.851 54.85 118.771 53.85C119.711 52.83 120.811 52.03 122.071 51.45C123.351 50.85 124.751 50.55 126.271 50.55C127.811 50.55 129.211 50.86 130.471 51.48C131.751 52.1 132.841 52.93 133.741 53.97C134.641 55.01 135.341 56.17 135.841 57.45C136.341 58.73 136.591 60.05 136.591 61.41C136.591 62.81 136.331 64.16 135.811 65.46C135.291 66.74 134.561 67.89 133.621 68.91C132.701 69.91 131.601 70.7 130.321 71.28C129.061 71.86 127.681 72.15 126.181 72.15ZM120.001 61.35C120.001 62.27 120.141 63.16 120.421 64.02C120.701 64.88 121.101 65.65 121.621 66.33C122.161 66.99 122.811 67.52 123.571 67.92C124.351 68.3 125.231 68.49 126.211 68.49C127.211 68.49 128.101 68.29 128.881 67.89C129.661 67.47 130.311 66.92 130.831 66.24C131.351 65.54 131.741 64.77 132.001 63.93C132.281 63.07 132.421 62.21 132.421 61.35C132.421 60.43 132.271 59.55 131.971 58.71C131.691 57.85 131.281 57.09 130.741 56.43C130.221 55.75 129.571 55.22 128.791 54.84C128.031 54.44 127.171 54.24 126.211 54.24C125.191 54.24 124.291 54.45 123.511 54.87C122.751 55.27 122.111 55.81 121.591 56.49C121.071 57.17 120.671 57.93 120.391 58.77C120.131 59.61 120.001 60.47 120.001 61.35ZM143.907 58.32V72H139.767V50.7H143.067L154.077 64.74V50.73H158.217V72H154.767L143.907 58.32ZM177.438 68.37V72H162.648V50.7H177.168V54.33H166.788V59.46H175.758V62.82H166.788V68.37H177.438ZM193.355 56.28C193.215 56.14 192.955 55.95 192.575 55.71C192.215 55.47 191.765 55.24 191.225 55.02C190.705 54.8 190.135 54.61 189.515 54.45C188.895 54.27 188.265 54.18 187.625 54.18C186.505 54.18 185.655 54.39 185.075 54.81C184.515 55.23 184.235 55.82 184.235 56.58C184.235 57.16 184.415 57.62 184.775 57.96C185.135 58.3 185.675 58.59 186.395 58.83C187.115 59.07 188.015 59.33 189.095 59.61C190.495 59.95 191.705 60.37 192.725 60.87C193.765 61.35 194.555 61.99 195.095 62.79C195.655 63.57 195.935 64.61 195.935 65.91C195.935 67.05 195.725 68.03 195.305 68.85C194.885 69.65 194.305 70.3 193.565 70.8C192.825 71.3 191.985 71.67 191.045 71.91C190.105 72.13 189.105 72.24 188.045 72.24C186.985 72.24 185.925 72.13 184.865 71.91C183.805 71.69 182.785 71.38 181.805 70.98C180.825 70.56 179.925 70.06 179.105 69.48L180.935 65.91C181.115 66.09 181.435 66.33 181.895 66.63C182.355 66.91 182.915 67.2 183.575 67.5C184.235 67.78 184.955 68.02 185.735 68.22C186.515 68.42 187.305 68.52 188.105 68.52C189.225 68.52 190.075 68.33 190.655 67.95C191.235 67.57 191.525 67.03 191.525 66.33C191.525 65.69 191.295 65.19 190.835 64.83C190.375 64.47 189.735 64.16 188.915 63.9C188.095 63.62 187.125 63.32 186.005 63C184.665 62.62 183.545 62.2 182.645 61.74C181.745 61.26 181.075 60.66 180.635 59.94C180.195 59.22 179.975 58.32 179.975 57.24C179.975 55.78 180.315 54.56 180.995 53.58C181.695 52.58 182.635 51.83 183.815 51.33C184.995 50.81 186.305 50.55 187.745 50.55C188.745 50.55 189.685 50.66 190.565 50.88C191.465 51.1 192.305 51.39 193.085 51.75C193.865 52.11 194.565 52.5 195.185 52.92L193.355 56.28Z" fill="#0D0101"/>
<path d="M96.125 107V89.25H103.525C104.308 89.25 105.025 89.4167 105.675 89.75C106.325 90.0667 106.892 90.5 107.375 91.05C107.858 91.5833 108.233 92.1917 108.5 92.875C108.767 93.5417 108.9 94.225 108.9 94.925C108.9 95.8917 108.683 96.8167 108.25 97.7C107.817 98.5667 107.208 99.275 106.425 99.825C105.642 100.358 104.725 100.625 103.675 100.625H98.375V107H96.125ZM98.375 98.625H103.55C104.167 98.625 104.7 98.4583 105.15 98.125C105.617 97.7917 105.975 97.3417 106.225 96.775C106.492 96.2083 106.625 95.5917 106.625 94.925C106.625 94.225 106.475 93.6 106.175 93.05C105.875 92.4833 105.483 92.0417 105 91.725C104.517 91.4083 103.983 91.25 103.4 91.25H98.375V98.625ZM118.251 95.875C117.151 95.8917 116.176 96.175 115.326 96.725C114.493 97.2583 113.901 98 113.551 98.95V107H111.351V93.95H113.401V96.975C113.851 96.075 114.443 95.35 115.176 94.8C115.926 94.2333 116.71 93.9167 117.526 93.85C117.693 93.85 117.835 93.85 117.951 93.85C118.068 93.85 118.168 93.8583 118.251 93.875V95.875ZM125.816 107.25C124.832 107.25 123.941 107.075 123.141 106.725C122.341 106.358 121.649 105.867 121.066 105.25C120.482 104.617 120.032 103.892 119.716 103.075C119.399 102.258 119.241 101.4 119.241 100.5C119.241 99.5833 119.399 98.7167 119.716 97.9C120.032 97.0833 120.482 96.3667 121.066 95.75C121.649 95.1167 122.341 94.625 123.141 94.275C123.957 93.9083 124.849 93.725 125.816 93.725C126.799 93.725 127.691 93.9083 128.491 94.275C129.291 94.625 129.982 95.1167 130.566 95.75C131.166 96.3667 131.624 97.0833 131.941 97.9C132.257 98.7167 132.416 99.5833 132.416 100.5C132.416 101.4 132.257 102.258 131.941 103.075C131.624 103.892 131.174 104.617 130.591 105.25C130.007 105.867 129.307 106.358 128.491 106.725C127.691 107.075 126.799 107.25 125.816 107.25ZM121.491 100.525C121.491 101.425 121.682 102.242 122.066 102.975C122.466 103.708 122.991 104.292 123.641 104.725C124.291 105.142 125.016 105.35 125.816 105.35C126.616 105.35 127.341 105.133 127.991 104.7C128.657 104.267 129.182 103.683 129.566 102.95C129.966 102.2 130.166 101.375 130.166 100.475C130.166 99.575 129.966 98.7583 129.566 98.025C129.182 97.2917 128.657 96.7083 127.991 96.275C127.341 95.8417 126.616 95.625 125.816 95.625C125.016 95.625 124.291 95.85 123.641 96.3C122.991 96.7333 122.466 97.3167 122.066 98.05C121.682 98.7833 121.491 99.6083 121.491 100.525ZM135.562 95.675H133.787V93.95H135.562V93.675C135.562 93.025 135.662 92.4 135.862 91.8C136.062 91.1833 136.362 90.625 136.762 90.125C137.162 89.625 137.662 89.2333 138.262 88.95C138.862 88.65 139.57 88.5 140.387 88.5C141.004 88.5 141.57 88.5667 142.087 88.7C142.604 88.8333 143.062 89 143.462 89.2C143.879 89.4 144.22 89.6 144.487 89.8L143.537 91.425C143.22 91.1417 142.787 90.9 142.237 90.7C141.704 90.5 141.129 90.4 140.512 90.4C139.879 90.4 139.354 90.5583 138.937 90.875C138.537 91.1917 138.237 91.6 138.037 92.1C137.854 92.5833 137.762 93.0833 137.762 93.6V93.95H144.437V107H142.237V95.675H137.762V107H135.562V95.675ZM154.747 106.35C154.563 106.433 154.313 106.542 153.997 106.675C153.68 106.808 153.313 106.925 152.897 107.025C152.48 107.125 152.038 107.175 151.572 107.175C151.038 107.175 150.547 107.083 150.097 106.9C149.647 106.7 149.288 106.4 149.022 106C148.755 105.583 148.622 105.067 148.622 104.45V95.675H146.847V93.95H148.622V89.6H150.822V93.95H153.747V95.675H150.822V103.775C150.855 104.242 151.013 104.592 151.297 104.825C151.58 105.042 151.913 105.15 152.297 105.15C152.73 105.15 153.13 105.075 153.497 104.925C153.863 104.775 154.105 104.667 154.222 104.6L154.747 106.35Z" fill="#838383"/>
<path d="M216.125 104V86.25H218.375V102H228.275V104H216.125ZM235.879 104.25C234.896 104.25 234.004 104.075 233.204 103.725C232.404 103.358 231.713 102.867 231.129 102.25C230.546 101.617 230.096 100.892 229.779 100.075C229.463 99.2583 229.304 98.4 229.304 97.5C229.304 96.5833 229.463 95.7167 229.779 94.9C230.096 94.0833 230.546 93.3667 231.129 92.75C231.713 92.1167 232.404 91.625 233.204 91.275C234.021 90.9083 234.913 90.725 235.879 90.725C236.863 90.725 237.754 90.9083 238.554 91.275C239.354 91.625 240.046 92.1167 240.629 92.75C241.229 93.3667 241.688 94.0833 242.004 94.9C242.321 95.7167 242.479 96.5833 242.479 97.5C242.479 98.4 242.321 99.2583 242.004 100.075C241.688 100.892 241.238 101.617 240.654 102.25C240.071 102.867 239.371 103.358 238.554 103.725C237.754 104.075 236.863 104.25 235.879 104.25ZM231.554 97.525C231.554 98.425 231.746 99.2417 232.129 99.975C232.529 100.708 233.054 101.292 233.704 101.725C234.354 102.142 235.079 102.35 235.879 102.35C236.679 102.35 237.404 102.133 238.054 101.7C238.721 101.267 239.246 100.683 239.629 99.95C240.029 99.2 240.229 98.375 240.229 97.475C240.229 96.575 240.029 95.7583 239.629 95.025C239.246 94.2917 238.721 93.7083 238.054 93.275C237.404 92.8417 236.679 92.625 235.879 92.625C235.079 92.625 234.354 92.85 233.704 93.3C233.054 93.7333 232.529 94.3167 232.129 95.05C231.746 95.7833 231.554 96.6083 231.554 97.525ZM249.62 104.25C248.537 104.25 247.52 104.075 246.57 103.725C245.62 103.358 244.803 102.817 244.12 102.1L244.97 100.55C245.72 101.25 246.47 101.75 247.22 102.05C247.97 102.35 248.737 102.5 249.52 102.5C250.42 102.5 251.153 102.333 251.72 102C252.287 101.65 252.57 101.142 252.57 100.475C252.57 99.9917 252.42 99.6333 252.12 99.4C251.837 99.1667 251.428 98.975 250.895 98.825C250.362 98.6583 249.728 98.475 248.995 98.275C248.095 98.0083 247.337 97.725 246.72 97.425C246.103 97.125 245.637 96.75 245.32 96.3C245.003 95.85 244.845 95.2833 244.845 94.6C244.845 93.7667 245.062 93.0667 245.495 92.5C245.928 91.9167 246.52 91.475 247.27 91.175C248.037 90.875 248.903 90.725 249.87 90.725C250.837 90.725 251.712 90.875 252.495 91.175C253.278 91.475 253.953 91.9167 254.52 92.5L253.52 94.025C253.003 93.4917 252.437 93.1 251.82 92.85C251.203 92.5833 250.512 92.45 249.745 92.45C249.295 92.45 248.853 92.5083 248.42 92.625C247.987 92.725 247.628 92.9167 247.345 93.2C247.062 93.4667 246.92 93.85 246.92 94.35C246.92 94.7667 247.028 95.1 247.245 95.35C247.478 95.5833 247.812 95.7833 248.245 95.95C248.695 96.1167 249.237 96.3 249.87 96.5C250.853 96.7833 251.703 97.0667 252.42 97.35C253.153 97.6333 253.72 98 254.12 98.45C254.52 98.9 254.72 99.525 254.72 100.325C254.72 101.558 254.253 102.525 253.32 103.225C252.387 103.908 251.153 104.25 249.62 104.25ZM263.127 104.25C262.144 104.25 261.244 104.075 260.427 103.725C259.627 103.358 258.927 102.867 258.327 102.25C257.744 101.617 257.285 100.892 256.952 100.075C256.635 99.2583 256.477 98.3917 256.477 97.475C256.477 96.2417 256.76 95.1167 257.327 94.1C257.894 93.0833 258.677 92.2667 259.677 91.65C260.694 91.0333 261.852 90.725 263.152 90.725C264.469 90.725 265.61 91.0417 266.577 91.675C267.56 92.2917 268.319 93.1083 268.852 94.125C269.402 95.125 269.677 96.2083 269.677 97.375C269.677 97.5417 269.669 97.7083 269.652 97.875C269.652 98.025 269.644 98.1417 269.627 98.225H258.802C258.869 99.075 259.102 99.8333 259.502 100.5C259.919 101.15 260.452 101.667 261.102 102.05C261.752 102.417 262.452 102.6 263.202 102.6C264.002 102.6 264.752 102.4 265.452 102C266.169 101.6 266.66 101.075 266.927 100.425L268.827 100.95C268.544 101.583 268.119 102.15 267.552 102.65C267.002 103.15 266.344 103.542 265.577 103.825C264.827 104.108 264.01 104.25 263.127 104.25ZM258.727 96.7H267.627C267.56 95.85 267.319 95.1 266.902 94.45C266.485 93.8 265.952 93.2917 265.302 92.925C264.652 92.5583 263.935 92.375 263.152 92.375C262.385 92.375 261.677 92.5583 261.027 92.925C260.377 93.2917 259.844 93.8 259.427 94.45C259.027 95.1 258.794 95.85 258.727 96.7Z" fill="#838383"/>
<path d="M106.7 131.22L107.82 131.24V134.14H106.7V131.22ZM106.8 131V118.82L107.7 118.68V131.04L106.8 131ZM106.7 115.7H107.82V118.56L106.7 118.7V115.7ZM111.16 120.78C111 120.593 110.787 120.413 110.52 120.24C110.253 120.067 109.953 119.913 109.62 119.78C109.287 119.633 108.92 119.52 108.52 119.44C108.133 119.347 107.727 119.3 107.3 119.3C106.207 119.3 105.4 119.507 104.88 119.92C104.36 120.333 104.1 120.9 104.1 121.62C104.1 122.127 104.233 122.527 104.5 122.82C104.767 123.113 105.173 123.353 105.72 123.54C106.28 123.727 106.987 123.92 107.84 124.12C108.827 124.333 109.68 124.593 110.4 124.9C111.12 125.207 111.673 125.62 112.06 126.14C112.447 126.647 112.64 127.327 112.64 128.18C112.64 128.86 112.507 129.453 112.24 129.96C111.987 130.453 111.627 130.867 111.16 131.2C110.693 131.52 110.147 131.76 109.52 131.92C108.893 132.067 108.213 132.14 107.48 132.14C106.76 132.14 106.053 132.067 105.36 131.92C104.68 131.76 104.033 131.533 103.42 131.24C102.807 130.947 102.233 130.58 101.7 130.14L102.56 128.62C102.773 128.847 103.047 129.073 103.38 129.3C103.727 129.513 104.113 129.713 104.54 129.9C104.98 130.087 105.453 130.24 105.96 130.36C106.467 130.467 106.987 130.52 107.52 130.52C108.533 130.52 109.32 130.34 109.88 129.98C110.44 129.607 110.72 129.067 110.72 128.36C110.72 127.827 110.56 127.4 110.24 127.08C109.933 126.76 109.473 126.493 108.86 126.28C108.247 126.067 107.5 125.853 106.62 125.64C105.66 125.4 104.853 125.14 104.2 124.86C103.547 124.567 103.053 124.187 102.72 123.72C102.4 123.253 102.24 122.647 102.24 121.9C102.24 120.993 102.46 120.227 102.9 119.6C103.34 118.973 103.947 118.5 104.72 118.18C105.493 117.86 106.367 117.7 107.34 117.7C107.98 117.7 108.573 117.767 109.12 117.9C109.68 118.033 110.2 118.22 110.68 118.46C111.16 118.7 111.6 118.987 112 119.32L111.16 120.78ZM120.601 127.28C121.175 127.373 121.668 127.587 122.081 127.92C122.495 128.24 122.815 128.653 123.041 129.16C123.268 129.653 123.381 130.213 123.381 130.84C123.381 131.653 123.181 132.367 122.781 132.98C122.395 133.607 121.841 134.087 121.121 134.42C120.401 134.767 119.561 134.94 118.601 134.94C117.588 134.94 116.695 134.747 115.921 134.36C115.161 133.987 114.568 133.453 114.141 132.76L115.321 131.58C115.628 132.113 116.041 132.54 116.561 132.86C117.095 133.18 117.775 133.34 118.601 133.34C119.521 133.34 120.241 133.127 120.761 132.7C121.295 132.287 121.561 131.667 121.561 130.84C121.561 130 121.275 129.333 120.701 128.84C120.141 128.333 119.321 128.08 118.241 128.08H117.721V126.6H118.281C119.241 126.6 119.975 126.367 120.481 125.9C121.001 125.433 121.261 124.853 121.261 124.16C121.261 123.68 121.148 123.287 120.921 122.98C120.695 122.673 120.388 122.447 120.001 122.3C119.615 122.14 119.168 122.06 118.661 122.06C117.928 122.06 117.281 122.22 116.721 122.54C116.175 122.847 115.748 123.28 115.441 123.84L114.361 122.72C114.601 122.267 114.941 121.873 115.381 121.54C115.835 121.207 116.355 120.947 116.941 120.76C117.541 120.573 118.175 120.48 118.841 120.48C119.681 120.48 120.421 120.627 121.061 120.92C121.715 121.213 122.221 121.627 122.581 122.16C122.941 122.693 123.121 123.32 123.121 124.04C123.121 124.56 123.021 125.053 122.821 125.52C122.621 125.973 122.328 126.36 121.941 126.68C121.568 126.987 121.121 127.187 120.601 127.28ZM135.442 126.14C135.442 127.313 135.222 128.36 134.782 129.28C134.342 130.187 133.742 130.9 132.982 131.42C132.222 131.94 131.356 132.2 130.382 132.2C129.409 132.2 128.542 131.94 127.782 131.42C127.022 130.9 126.422 130.187 125.982 129.28C125.542 128.36 125.322 127.313 125.322 126.14C125.322 124.967 125.542 123.927 125.982 123.02C126.422 122.1 127.022 121.38 127.782 120.86C128.542 120.327 129.409 120.06 130.382 120.06C131.356 120.06 132.222 120.327 132.982 120.86C133.742 121.38 134.342 122.1 134.782 123.02C135.222 123.927 135.442 124.967 135.442 126.14ZM133.662 126.14C133.662 125.26 133.522 124.487 133.242 123.82C132.962 123.153 132.576 122.633 132.082 122.26C131.589 121.887 131.022 121.7 130.382 121.7C129.729 121.7 129.156 121.887 128.662 122.26C128.169 122.633 127.782 123.153 127.502 123.82C127.222 124.487 127.082 125.26 127.082 126.14C127.082 127.02 127.222 127.793 127.502 128.46C127.782 129.113 128.169 129.627 128.662 130C129.156 130.373 129.729 130.56 130.382 130.56C131.022 130.56 131.589 130.373 132.082 130C132.576 129.627 132.962 129.113 133.242 128.46C133.522 127.793 133.662 127.02 133.662 126.14ZM147.727 126.14C147.727 127.313 147.507 128.36 147.067 129.28C146.627 130.187 146.027 130.9 145.267 131.42C144.507 131.94 143.641 132.2 142.667 132.2C141.694 132.2 140.827 131.94 140.067 131.42C139.307 130.9 138.707 130.187 138.267 129.28C137.827 128.36 137.607 127.313 137.607 126.14C137.607 124.967 137.827 123.927 138.267 123.02C138.707 122.1 139.307 121.38 140.067 120.86C140.827 120.327 141.694 120.06 142.667 120.06C143.641 120.06 144.507 120.327 145.267 120.86C146.027 121.38 146.627 122.1 147.067 123.02C147.507 123.927 147.727 124.967 147.727 126.14ZM145.947 126.14C145.947 125.26 145.807 124.487 145.527 123.82C145.247 123.153 144.861 122.633 144.367 122.26C143.874 121.887 143.307 121.7 142.667 121.7C142.014 121.7 141.441 121.887 140.947 122.26C140.454 122.633 140.067 123.153 139.787 123.82C139.507 124.487 139.367 125.26 139.367 126.14C139.367 127.02 139.507 127.793 139.787 128.46C140.067 129.113 140.454 129.627 140.947 130C141.441 130.373 142.014 130.56 142.667 130.56C143.307 130.56 143.874 130.373 144.367 130C144.861 129.627 145.247 129.113 145.527 128.46C145.807 127.793 145.947 127.02 145.947 126.14Z" fill="#42EA72"/>
<path d="M224.7 131.22L225.82 131.24V134.14H224.7V131.22ZM224.8 131V118.82L225.7 118.68V131.04L224.8 131ZM224.7 115.7H225.82V118.56L224.7 118.7V115.7ZM229.16 120.78C229 120.593 228.787 120.413 228.52 120.24C228.253 120.067 227.953 119.913 227.62 119.78C227.287 119.633 226.92 119.52 226.52 119.44C226.133 119.347 225.727 119.3 225.3 119.3C224.207 119.3 223.4 119.507 222.88 119.92C222.36 120.333 222.1 120.9 222.1 121.62C222.1 122.127 222.233 122.527 222.5 122.82C222.767 123.113 223.173 123.353 223.72 123.54C224.28 123.727 224.987 123.92 225.84 124.12C226.827 124.333 227.68 124.593 228.4 124.9C229.12 125.207 229.673 125.62 230.06 126.14C230.447 126.647 230.64 127.327 230.64 128.18C230.64 128.86 230.507 129.453 230.24 129.96C229.987 130.453 229.627 130.867 229.16 131.2C228.693 131.52 228.147 131.76 227.52 131.92C226.893 132.067 226.213 132.14 225.48 132.14C224.76 132.14 224.053 132.067 223.36 131.92C222.68 131.76 222.033 131.533 221.42 131.24C220.807 130.947 220.233 130.58 219.7 130.14L220.56 128.62C220.773 128.847 221.047 129.073 221.38 129.3C221.727 129.513 222.113 129.713 222.54 129.9C222.98 130.087 223.453 130.24 223.96 130.36C224.467 130.467 224.987 130.52 225.52 130.52C226.533 130.52 227.32 130.34 227.88 129.98C228.44 129.607 228.72 129.067 228.72 128.36C228.72 127.827 228.56 127.4 228.24 127.08C227.933 126.76 227.473 126.493 226.86 126.28C226.247 126.067 225.5 125.853 224.62 125.64C223.66 125.4 222.853 125.14 222.2 124.86C221.547 124.567 221.053 124.187 220.72 123.72C220.4 123.253 220.24 122.647 220.24 121.9C220.24 120.993 220.46 120.227 220.9 119.6C221.34 118.973 221.947 118.5 222.72 118.18C223.493 117.86 224.367 117.7 225.34 117.7C225.98 117.7 226.573 117.767 227.12 117.9C227.68 118.033 228.2 118.22 228.68 118.46C229.16 118.7 229.6 118.987 230 119.32L229.16 120.78ZM232.301 132C232.301 131.467 232.341 130.967 232.421 130.5C232.515 130.033 232.675 129.587 232.901 129.16C233.141 128.733 233.475 128.327 233.901 127.94C234.328 127.54 234.881 127.153 235.561 126.78C235.961 126.553 236.361 126.34 236.761 126.14C237.175 125.94 237.555 125.727 237.901 125.5C238.261 125.273 238.548 125.027 238.761 124.76C238.975 124.48 239.081 124.16 239.081 123.8C239.081 123.493 238.988 123.2 238.801 122.92C238.628 122.627 238.361 122.393 238.001 122.22C237.655 122.033 237.221 121.94 236.701 121.94C236.301 121.94 235.935 121.993 235.601 122.1C235.281 122.207 234.988 122.347 234.721 122.52C234.468 122.68 234.241 122.853 234.041 123.04C233.855 123.213 233.695 123.373 233.561 123.52L232.461 122.28C232.568 122.16 232.748 122 233.001 121.8C233.255 121.587 233.575 121.373 233.961 121.16C234.348 120.947 234.795 120.767 235.301 120.62C235.821 120.46 236.388 120.38 237.001 120.38C237.828 120.38 238.535 120.527 239.121 120.82C239.721 121.1 240.181 121.487 240.501 121.98C240.821 122.46 240.981 123 240.981 123.6C240.981 124.12 240.868 124.573 240.641 124.96C240.428 125.347 240.148 125.687 239.801 125.98C239.468 126.273 239.115 126.527 238.741 126.74C238.381 126.94 238.055 127.113 237.761 127.26C237.161 127.553 236.648 127.82 236.221 128.06C235.795 128.3 235.441 128.54 235.161 128.78C234.895 129.007 234.675 129.247 234.501 129.5C234.341 129.753 234.221 130.053 234.141 130.4H241.201V132H232.301ZM253.345 126.14C253.345 127.313 253.125 128.36 252.685 129.28C252.245 130.187 251.645 130.9 250.885 131.42C250.125 131.94 249.258 132.2 248.285 132.2C247.311 132.2 246.445 131.94 245.685 131.42C244.925 130.9 244.325 130.187 243.885 129.28C243.445 128.36 243.225 127.313 243.225 126.14C243.225 124.967 243.445 123.927 243.885 123.02C244.325 122.1 244.925 121.38 245.685 120.86C246.445 120.327 247.311 120.06 248.285 120.06C249.258 120.06 250.125 120.327 250.885 120.86C251.645 121.38 252.245 122.1 252.685 123.02C253.125 123.927 253.345 124.967 253.345 126.14ZM251.565 126.14C251.565 125.26 251.425 124.487 251.145 123.82C250.865 123.153 250.478 122.633 249.985 122.26C249.491 121.887 248.925 121.7 248.285 121.7C247.631 121.7 247.058 121.887 246.565 122.26C246.071 122.633 245.685 123.153 245.405 123.82C245.125 124.487 244.985 125.26 244.985 126.14C244.985 127.02 245.125 127.793 245.405 128.46C245.685 129.113 246.071 129.627 246.565 130C247.058 130.373 247.631 130.56 248.285 130.56C248.925 130.56 249.491 130.373 249.985 130C250.478 129.627 250.865 129.113 251.145 128.46C251.425 127.793 251.565 127.02 251.565 126.14Z" fill="#FF0000"/>
<path d="M377.246 158.213C377.246 158.213 395.366 151.545 383.563 114.019C371.76 76.4926 386.862 77.3158 393.594 58.3351C400.326 39.3545 390.385 26.5009 390.385 26.5009" stroke="#263238" stroke-width="3" stroke-linecap="round" stroke-linejoin="round"/>
<path d="M331.513 144.23H437.52C438.183 144.23 438.82 144.506 439.289 144.998C439.758 145.49 440.022 146.157 440.022 146.853V151.004C440.022 151.699 439.758 152.366 439.289 152.858C438.82 153.35 438.183 153.626 437.52 153.626H331.513C330.847 153.626 330.207 153.349 329.736 152.855C329.265 152.361 329 151.691 329 150.992V146.841C329 146.495 329.065 146.152 329.191 145.833C329.318 145.513 329.503 145.223 329.736 144.978C329.97 144.734 330.247 144.54 330.551 144.407C330.856 144.275 331.183 144.207 331.513 144.207V144.23Z" fill="#263238"/>
<path d="M339.087 153.638H392.572" stroke="white" stroke-linecap="round" stroke-linejoin="round"/>
<path d="M399.304 153.638H403.422" stroke="white" stroke-linecap="round" stroke-linejoin="round"/>
<path d="M428.106 153.638H420.623" stroke="white" stroke-linecap="round" stroke-linejoin="round"/>
<path d="M382.115 109.138C382.115 109.138 385.964 88.2408 402.076 86.6062C418.188 84.9716 420.028 71.7416 420.028 71.7416" stroke="#263238" stroke-width="3" stroke-linecap="round" stroke-linejoin="round"/>
<path d="M383.754 72.9058C383.754 72.9058 379.838 70.9301 365.319 61.6633C350.801 52.3964 351.362 37.6259 351.362 37.6259" stroke="#263238" stroke-width="3" stroke-linecap="round" stroke-linejoin="round"/>
<path d="M386.862 127.896C386.862 127.896 358.441 126.72 354.223 102.282" stroke="#263238" stroke-width="3" stroke-linecap="round" stroke-linejoin="round"/>
<path d="M404.825 16.058C404.518 18.6946 403.471 21.1766 401.818 23.19C400.165 25.2034 397.979 26.6577 395.538 27.3692C393.096 28.0806 390.508 28.0171 388.101 27.1868C385.693 26.3565 383.575 24.7966 382.014 22.7044C380.452 20.6122 379.518 18.0817 379.329 15.4329C379.139 12.784 379.704 10.1358 380.95 7.82321C382.197 5.51059 384.07 3.63742 386.333 2.44056C388.595 1.2437 391.145 0.776929 393.661 1.09926C397.034 1.53144 400.105 3.35018 402.198 6.15543C404.292 8.96068 405.237 12.5227 404.825 16.058Z" fill="white"/>
<path d="M404.825 16.058C404.518 18.6946 403.471 21.1766 401.818 23.19C400.165 25.2034 397.979 26.6577 395.538 27.3692C393.096 28.0806 390.508 28.0171 388.101 27.1868C385.693 26.3565 383.575 24.7966 382.014 22.7044C380.452 20.6122 379.518 18.0817 379.329 15.4329C379.139 12.784 379.704 10.1358 380.95 7.82321C382.197 5.51059 384.07 3.63742 386.333 2.44056C388.595 1.2437 391.145 0.776929 393.661 1.09926C397.034 1.53144 400.105 3.35018 402.198 6.15543C404.292 8.96068 405.237 12.5227 404.825 16.058V16.058Z" stroke="#263238" stroke-linecap="round" stroke-linejoin="round"/>
<path d="M402.379 15.7404C402.13 17.8704 401.283 19.875 399.946 21.5004C398.609 23.1257 396.842 24.2988 394.869 24.8709C392.896 25.4431 390.805 25.3887 388.861 24.7145C386.917 24.0403 385.208 22.7768 383.95 21.0839C382.692 19.3909 381.941 17.3447 381.793 15.2044C381.645 13.064 382.107 10.9257 383.119 9.06037C384.131 7.19499 385.648 5.68639 387.479 4.72556C389.31 3.76473 391.371 3.3949 393.403 3.6629C396.121 4.01831 398.593 5.49002 400.276 7.75463C401.959 10.0192 402.715 12.8915 402.379 15.7404Z" stroke="#263238" stroke-linecap="round" stroke-linejoin="round"/>
<path d="M390.564 9.03726C390.954 8.57491 391.502 8.2919 392.09 8.24933L392.191 7.35559L393.672 7.54372L393.56 8.43749C393.846 8.53019 394.112 8.68201 394.341 8.88398C394.57 9.08595 394.759 9.33399 394.895 9.61349C395.174 10.2534 395.264 10.9659 395.153 11.6597V12.0361L393.448 11.8244L393.504 11.3187C393.573 11.0036 393.529 10.673 393.38 10.3897C393.307 10.282 393.212 10.1932 393.101 10.13C392.99 10.0668 392.867 10.031 392.741 10.0251C392.618 9.99872 392.491 10.0031 392.37 10.0378C392.249 10.0725 392.138 10.1367 392.045 10.225C391.836 10.4625 391.716 10.7719 391.709 11.0953C391.663 11.4235 391.694 11.7583 391.798 12.0713C391.903 12.3556 392.043 12.6244 392.213 12.871C392.382 13.1062 392.64 13.4002 392.954 13.7648C393.288 14.1028 393.596 14.4685 393.874 14.8584C394.12 15.2146 394.306 15.6124 394.424 16.0344C394.562 16.5346 394.596 17.0598 394.525 17.575C394.472 18.28 394.218 18.9519 393.795 19.5037C393.597 19.7346 393.357 19.922 393.09 20.0552C392.822 20.1885 392.532 20.2648 392.236 20.2798L392.135 21.1501L390.654 20.9619L390.766 20.0917C390.478 20.0003 390.21 19.8492 389.979 19.6471C389.748 19.4451 389.557 19.1963 389.42 18.9157C389.135 18.2777 389.045 17.5631 389.162 16.8694L389.251 16.0462L390.957 16.2579L390.845 17.1987C390.755 17.9749 391.024 18.3747 391.641 18.4923C392.258 18.6099 392.617 18.2218 392.707 17.4457C392.752 17.1136 392.721 16.7751 392.617 16.4578C392.518 16.1712 392.378 15.9017 392.202 15.6582C391.972 15.349 391.725 15.0545 391.462 14.7762C391.13 14.4313 390.823 14.0619 390.542 13.6707C390.299 13.3138 390.117 12.9161 390.003 12.4947C389.848 11.9118 389.822 11.2994 389.927 10.7043C390.032 10.1092 390.265 9.54704 390.609 9.06077L390.564 9.03726Z" fill="#263238"/>
<path d="M364.5 26.7243C364.841 29.356 364.429 32.0344 363.318 34.4209C362.206 36.8075 360.445 38.7952 358.256 40.1325C356.066 41.4699 353.548 42.0969 351.019 41.9344C348.49 41.7719 346.064 40.8271 344.047 39.2195C342.03 37.6119 340.513 35.4136 339.688 32.9026C338.863 30.3915 338.767 27.6805 339.412 25.1121C340.057 22.5438 341.413 20.2335 343.311 18.4733C345.208 16.7131 347.561 15.582 350.071 15.223C351.739 14.9845 353.436 15.0928 355.064 15.5419C356.692 15.9909 358.22 16.7717 359.56 17.8398C360.9 18.9079 362.026 20.2423 362.873 21.7668C363.721 23.2912 364.274 24.9758 364.5 26.7243Z" fill="white"/>
<path d="M364.5 26.7243C364.841 29.356 364.429 32.0344 363.318 34.4209C362.206 36.8075 360.445 38.7952 358.256 40.1325C356.066 41.4699 353.548 42.0969 351.019 41.9344C348.49 41.7719 346.064 40.8271 344.047 39.2195C342.03 37.6119 340.513 35.4136 339.688 32.9026C338.863 30.3915 338.767 27.6805 339.412 25.1121C340.057 22.5438 341.413 20.2335 343.311 18.4733C345.208 16.7131 347.561 15.582 350.071 15.223C351.739 14.9845 353.436 15.0928 355.064 15.5419C356.692 15.9909 358.22 16.7717 359.56 17.8398C360.9 18.9079 362.026 20.2423 362.873 21.7668C363.721 23.2912 364.274 24.9758 364.5 26.7243V26.7243Z" stroke="#263238" stroke-linecap="round" stroke-linejoin="round"/>
<path d="M362.076 27.0653C362.343 29.1887 362.004 31.3473 361.102 33.2689C360.199 35.1904 358.774 36.7889 357.006 37.8626C355.238 38.9363 353.207 39.4371 351.167 39.302C349.128 39.1668 347.173 38.4016 345.548 37.103C343.923 35.8044 342.701 34.0305 342.037 32.0051C341.373 29.9797 341.296 27.7935 341.816 25.7223C342.336 23.6511 343.429 21.7876 344.958 20.3669C346.487 18.9463 348.383 18.0321 350.408 17.7397C351.759 17.5445 353.133 17.6312 354.452 17.9949C355.771 18.3586 357.008 18.992 358.093 19.8587C359.177 20.7254 360.087 21.8083 360.771 23.0451C361.455 24.2819 361.898 25.6482 362.076 27.0653V27.0653Z" stroke="#263238" stroke-linecap="round" stroke-linejoin="round"/>
<path d="M349.016 23.702C349.282 23.1469 349.745 22.7241 350.307 22.526L350.183 21.6322L351.653 21.4205L351.776 22.3143C352.371 22.3386 352.932 22.6093 353.336 23.0669C353.762 23.6093 354.024 24.2727 354.088 24.972V25.3484L352.382 25.5836L352.326 25.0896C352.31 24.7695 352.187 24.4656 351.978 24.2312C351.776 24.0738 351.524 24.0054 351.274 24.0406C351.025 24.0757 350.798 24.2116 350.643 24.4193C350.5 24.7045 350.46 25.0347 350.531 25.3484C350.564 25.678 350.676 25.9936 350.856 26.2656C351.022 26.5189 351.222 26.7448 351.451 26.936C351.675 27.1124 351.978 27.3358 352.382 27.5945C352.774 27.8409 353.149 28.1159 353.504 28.4177C353.827 28.6901 354.101 29.0206 354.312 29.3938C354.572 29.8366 354.733 30.335 354.783 30.852C354.912 31.547 354.83 32.2667 354.548 32.91C354.413 33.1884 354.226 33.4357 353.999 33.6376C353.771 33.8395 353.508 33.992 353.224 34.086L353.336 34.968L351.866 35.168L351.754 34.2977C351.456 34.2888 351.162 34.2176 350.891 34.0884C350.619 33.9591 350.375 33.7745 350.172 33.5451C349.742 33.0019 349.483 32.3321 349.431 31.6282L349.319 30.8168L351.025 30.5698L351.148 31.5106C351.238 32.2868 351.608 32.6866 352.27 32.5455C352.932 32.4044 353.145 32.0163 353.044 31.2401C353.011 30.9105 352.9 30.5949 352.719 30.3229C352.554 30.0696 352.353 29.8437 352.124 29.6525C351.9 29.4761 351.597 29.2527 351.193 28.994C350.801 28.7512 350.427 28.4801 350.071 28.1825C349.751 27.9029 349.478 27.569 349.263 27.1947C348.973 26.6634 348.8 26.0707 348.757 25.4601C348.715 24.8495 348.803 24.2367 349.016 23.6667V23.702Z" fill="#263238"/>
<path d="M363.76 90.9574C363.96 93.6052 363.407 96.2558 362.171 98.5742C360.934 100.893 359.069 102.775 356.812 103.982C354.555 105.19 352.007 105.669 349.49 105.359C346.973 105.048 344.601 103.963 342.673 102.24C340.744 100.516 339.347 98.2322 338.657 95.6764C337.967 93.1206 338.016 90.4078 338.797 87.881C339.578 85.3542 341.057 83.1269 343.045 81.4808C345.034 79.8347 347.444 78.8436 349.97 78.6329C351.648 78.4915 353.336 78.6982 354.938 79.2412C356.539 79.7843 358.023 80.6531 359.303 81.7978C360.584 82.9426 361.637 84.3408 362.402 85.9125C363.166 87.4843 363.628 89.1986 363.76 90.9574Z" fill="white"/>
<path d="M363.76 90.9574C363.96 93.6052 363.407 96.2558 362.171 98.5742C360.934 100.893 359.069 102.775 356.812 103.982C354.555 105.19 352.007 105.669 349.49 105.359C346.973 105.048 344.601 103.963 342.673 102.24C340.744 100.516 339.347 98.2322 338.657 95.6764C337.967 93.1206 338.016 90.4078 338.797 87.881C339.578 85.3542 341.057 83.1269 343.045 81.4808C345.034 79.8347 347.444 78.8436 349.97 78.6329C351.648 78.4915 353.336 78.6982 354.938 79.2412C356.539 79.7843 358.023 80.6531 359.303 81.7978C360.584 82.9426 361.637 84.3408 362.402 85.9125C363.166 87.4843 363.628 89.1986 363.76 90.9574V90.9574Z" stroke="#263238" stroke-linecap="round" stroke-linejoin="round"/>
<path d="M361.302 91.1573C361.471 93.2955 361.031 95.438 360.037 97.3138C359.044 99.1896 357.542 100.714 355.721 101.695C353.901 102.676 351.844 103.068 349.81 102.823C347.777 102.578 345.858 101.706 344.298 100.317C342.737 98.9286 341.605 97.0861 341.044 95.0228C340.483 92.9595 340.519 90.7682 341.146 88.7262C341.774 86.6841 342.966 84.8831 344.57 83.5511C346.175 82.2192 348.121 81.4162 350.161 81.2436C352.891 81.0159 355.597 81.9312 357.685 83.7892C359.773 85.6471 361.074 88.2965 361.302 91.1573V91.1573Z" stroke="#263238" stroke-linecap="round" stroke-linejoin="round"/>
<path d="M348.433 87.1236C348.727 86.5878 349.211 86.1949 349.779 86.0299L349.712 85.1362L351.193 85.0068L351.26 85.9006C351.851 85.9582 352.395 86.2584 352.775 86.7356C353.173 87.3035 353.4 87.9834 353.426 88.6877V89.064L351.72 89.2051V88.7112C351.728 88.3899 351.625 88.0766 351.429 87.8292C351.236 87.6588 350.987 87.5744 350.735 87.5942C350.483 87.614 350.249 87.7364 350.082 87.9351C349.921 88.2134 349.862 88.5433 349.914 88.8641C349.937 89.1924 350.033 89.5105 350.195 89.7931C350.347 90.056 350.536 90.2937 350.756 90.4987C351.04 90.7574 351.34 90.997 351.653 91.2161C352.045 91.4845 352.42 91.7792 352.775 92.0981C353.078 92.3935 353.332 92.7392 353.527 93.1212C353.759 93.5837 353.893 94.0931 353.92 94.6147C354.006 95.3142 353.884 96.0246 353.572 96.6492C353.421 96.916 353.222 97.1489 352.985 97.3346C352.748 97.5203 352.478 97.655 352.192 97.7311L352.259 98.6131L350.778 98.7425L350.711 97.8605C350.414 97.8335 350.125 97.7447 349.861 97.5993C349.597 97.4539 349.363 97.2549 349.174 97.0138C348.779 96.4444 348.557 95.7646 348.534 95.0616L348.467 94.2384L350.183 94.0855L350.251 95.0381C350.251 95.826 350.655 96.2141 351.272 96.1318C351.889 96.0495 352.181 95.6614 352.124 94.8852C352.101 94.5532 352.005 94.2312 351.844 93.9444C351.691 93.6815 351.502 93.4438 351.283 93.2388C351.07 93.0507 350.778 92.8155 350.385 92.5332C349.991 92.2649 349.616 91.9661 349.263 91.6394C348.957 91.3447 348.699 90.999 348.5 90.6163C348.272 90.1565 348.139 89.6518 348.108 89.1346C348.013 88.4451 348.127 87.742 348.433 87.1236Z" fill="#263238"/>
<path d="M438.451 67.8843C437.386 70.2948 435.663 72.32 433.5 73.704C431.336 75.0879 428.83 75.7684 426.298 75.6593C423.766 75.5501 421.321 74.6563 419.274 73.091C417.226 71.5256 415.667 69.3589 414.795 66.8649C413.922 64.371 413.774 61.6618 414.371 59.08C414.967 56.4982 416.281 54.1598 418.145 52.3606C420.01 50.5613 422.342 49.382 424.846 48.9718C427.35 48.5616 429.913 48.939 432.213 50.0561C435.295 51.5537 437.684 54.2731 438.854 57.6164C440.024 60.9596 439.879 64.653 438.451 67.8843Z" fill="white"/>
<path d="M438.451 67.8843C437.386 70.2948 435.663 72.32 433.5 73.704C431.336 75.0879 428.83 75.7684 426.298 75.6593C423.766 75.5501 421.321 74.6563 419.274 73.091C417.226 71.5256 415.667 69.3589 414.795 66.8649C413.922 64.371 413.774 61.6618 414.371 59.08C414.967 56.4982 416.281 54.1598 418.145 52.3606C420.01 50.5613 422.342 49.382 424.846 48.9718C427.35 48.5616 429.913 48.939 432.213 50.0561C435.295 51.5537 437.684 54.2731 438.854 57.6164C440.024 60.9596 439.879 64.653 438.451 67.8843V67.8843Z" stroke="#263238" stroke-linecap="round" stroke-linejoin="round"/>
<path d="M436.218 66.8024C435.357 68.7469 433.965 70.3802 432.218 71.4957C430.471 72.6112 428.448 73.1589 426.405 73.0696C424.361 72.9803 422.388 72.2579 420.736 70.9939C419.084 69.7298 417.827 67.9807 417.123 65.9677C416.419 63.9548 416.3 61.7682 416.781 59.6845C417.263 57.6008 418.323 55.7135 419.827 54.261C421.332 52.8085 423.213 51.8562 425.234 51.5243C427.255 51.1924 429.324 51.4959 431.181 52.3964C432.415 52.9937 433.526 53.8406 434.448 54.8885C435.369 55.9365 436.085 57.1648 436.553 58.5032C437.021 59.8415 437.232 61.2636 437.175 62.6877C437.118 64.1119 436.792 65.5102 436.218 66.8024V66.8024Z" stroke="#263238" stroke-linecap="round" stroke-linejoin="round"/>
<path d="M426.906 56.6183C427.413 56.3039 428.017 56.2109 428.589 56.3595L428.948 55.5481L430.294 56.2067L429.935 57.0181C430.423 57.3712 430.758 57.9124 430.866 58.5234C430.947 59.2227 430.826 59.9313 430.519 60.5579L430.362 60.8989L428.813 60.1463L429.004 59.6876C429.16 59.4074 429.216 59.078 429.161 58.7586C429.125 58.6326 429.062 58.5171 428.976 58.4212C428.891 58.3252 428.785 58.2515 428.667 58.2059C428.554 58.1485 428.429 58.1188 428.303 58.1188C428.176 58.1188 428.052 58.1485 427.938 58.2059C427.674 58.3691 427.472 58.6224 427.366 58.9232C427.226 59.223 427.156 59.5538 427.164 59.8875C427.175 60.1918 427.228 60.4929 427.321 60.7813C427.422 61.0635 427.568 61.4281 427.77 61.8632C427.981 62.297 428.164 62.7449 428.32 63.2039C428.446 63.622 428.506 64.0589 428.499 64.4975C428.484 65.0153 428.366 65.5241 428.151 65.991C427.891 66.6455 427.45 67.2028 426.883 67.5903C426.628 67.7452 426.346 67.8456 426.053 67.886C425.76 67.9263 425.463 67.9058 425.178 67.8255L424.819 68.6252L423.472 67.9666L423.787 67.1317C423.542 66.9566 423.332 66.7324 423.171 66.472C423.009 66.2116 422.898 65.9202 422.844 65.6146C422.761 64.9114 422.883 64.1984 423.192 63.5684L423.529 62.8158L425.088 63.5802L424.707 64.4386C424.393 65.1442 424.516 65.6146 425.088 65.9204C425.66 66.2262 426.098 65.9204 426.412 65.2618C426.545 64.9639 426.61 64.638 426.603 64.3093C426.597 64.0006 426.544 63.6948 426.446 63.4038C426.318 63.0336 426.168 62.6723 425.997 62.3219C425.782 61.89 425.598 61.4418 425.447 60.9812C425.319 60.5677 425.262 60.1337 425.279 59.6994C425.286 59.1804 425.405 58.6698 425.627 58.2059C425.891 57.5541 426.337 57.0009 426.906 56.6183Z" fill="#263238"/>
<path d="M419.478 73.9995C419.478 74.8345 431.427 65.7675 443.04 71.5417C443.04 71.5417 430.9 83.1018 419.153 75.9164C407.405 68.731 409.055 51.1028 409.055 51.1028C409.055 51.1028 420.42 59.4171 419.478 73.9995Z" fill="#42EA72" stroke="#263238" stroke-linecap="round" stroke-linejoin="round"/>
<path d="M392.124 28.1708C392.505 28.8999 397.891 14.4469 410.682 12.6829C410.682 12.6829 406.463 29.2997 392.875 29.9348C379.288 30.5698 371.557 14.8232 371.557 14.8232C371.557 14.8232 385.358 15.3876 392.124 28.1708Z" fill="#42EA72" stroke="#263238" stroke-linecap="round" stroke-linejoin="round"/>
<path d="M353.247 43.3294C353.74 43.988 356.882 28.8176 369.235 24.9603C369.235 24.9603 367.574 42.0711 354.268 44.9523C340.961 47.8335 330.952 33.5569 330.952 33.5569C330.952 33.5569 344.641 31.8517 353.247 43.3294Z" fill="#42EA72" stroke="#263238" stroke-linecap="round" stroke-linejoin="round"/>
<path d="M483.246 170.213C483.246 170.213 501.366 163.545 489.563 126.019C477.76 88.4926 492.862 89.3158 499.594 70.3351C506.326 51.3545 496.385 38.5009 496.385 38.5009" stroke="#263238" stroke-width="3" stroke-linecap="round" stroke-linejoin="round"/>
<path d="M437.513 156.23H543.52C544.183 156.23 544.82 156.506 545.289 156.998C545.758 157.49 546.022 158.157 546.022 158.853V163.004C546.022 163.699 545.758 164.366 545.289 164.858C544.82 165.35 544.183 165.626 543.52 165.626H437.513C436.847 165.626 436.207 165.349 435.736 164.855C435.265 164.361 435 163.691 435 162.992V158.841C435 158.495 435.065 158.152 435.191 157.833C435.318 157.513 435.503 157.223 435.736 156.978C435.97 156.734 436.247 156.54 436.551 156.407C436.856 156.275 437.183 156.207 437.513 156.207V156.23Z" fill="#263238"/>
<path d="M445.087 165.638H498.572" stroke="white" stroke-linecap="round" stroke-linejoin="round"/>
<path d="M505.304 165.638H509.422" stroke="white" stroke-linecap="round" stroke-linejoin="round"/>
<path d="M534.106 165.638H526.623" stroke="white" stroke-linecap="round" stroke-linejoin="round"/>
<path d="M488 118.397C488 118.397 491.848 97.4993 507.96 95.8646C524.072 94.23 525.912 81 525.912 81" stroke="#263238" stroke-width="3" stroke-linecap="round" stroke-linejoin="round"/>
<path d="M489.754 84.9058C489.754 84.9058 485.838 82.9301 471.319 73.6633C456.801 64.3964 457.362 49.6259 457.362 49.6259" stroke="#263238" stroke-width="3" stroke-linecap="round" stroke-linejoin="round"/>
<path d="M492.862 139.896C492.862 139.896 464.441 138.72 460.223 114.282" stroke="#263238" stroke-width="3" stroke-linecap="round" stroke-linejoin="round"/>
<path d="M510.825 28.058C510.518 30.6946 509.471 33.1766 507.818 35.19C506.165 37.2034 503.979 38.6577 501.538 39.3692C499.096 40.0806 496.508 40.0171 494.101 39.1868C491.693 38.3565 489.575 36.7966 488.014 34.7044C486.452 32.6122 485.518 30.0817 485.329 27.4329C485.139 24.784 485.704 22.1358 486.95 19.8232C488.197 17.5106 490.07 15.6374 492.333 14.4406C494.595 13.2437 497.145 12.7769 499.661 13.0993C503.034 13.5314 506.105 15.3502 508.198 18.1554C510.292 20.9607 511.237 24.5227 510.825 28.058Z" fill="white"/>
<path d="M510.825 28.058C510.518 30.6946 509.471 33.1766 507.818 35.19C506.165 37.2034 503.979 38.6577 501.538 39.3692C499.096 40.0806 496.508 40.0171 494.101 39.1868C491.693 38.3565 489.575 36.7966 488.014 34.7044C486.452 32.6122 485.518 30.0817 485.329 27.4329C485.139 24.784 485.704 22.1358 486.95 19.8232C488.197 17.5106 490.07 15.6374 492.333 14.4406C494.595 13.2437 497.145 12.7769 499.661 13.0993C503.034 13.5314 506.105 15.3502 508.198 18.1554C510.292 20.9607 511.237 24.5227 510.825 28.058V28.058Z" stroke="#263238" stroke-linecap="round" stroke-linejoin="round"/>
<path d="M508.379 27.7404C508.13 29.8704 507.283 31.875 505.946 33.5004C504.609 35.1257 502.842 36.2988 500.869 36.8709C498.896 37.4431 496.805 37.3887 494.861 36.7145C492.917 36.0403 491.208 34.7768 489.95 33.0839C488.692 31.3909 487.941 29.3447 487.793 27.2044C487.645 25.064 488.107 22.9257 489.119 21.0604C490.131 19.195 491.648 17.6864 493.479 16.7256C495.31 15.7647 497.371 15.3949 499.403 15.6629C502.121 16.0183 504.593 17.49 506.276 19.7546C507.959 22.0192 508.715 24.8915 508.379 27.7404Z" stroke="#263238" stroke-linecap="round" stroke-linejoin="round"/>
<path d="M496.564 21.0373C496.954 20.5749 497.502 20.2919 498.09 20.2493L498.191 19.3556L499.672 19.5437L499.56 20.4375C499.846 20.5302 500.112 20.682 500.341 20.884C500.57 21.086 500.759 21.334 500.895 21.6135C501.174 22.2534 501.264 22.9659 501.153 23.6597V24.0361L499.448 23.8244L499.504 23.3187C499.573 23.0036 499.529 22.673 499.38 22.3897C499.307 22.282 499.212 22.1932 499.101 22.13C498.99 22.0668 498.867 22.031 498.741 22.0251C498.618 21.9987 498.491 22.0031 498.37 22.0378C498.249 22.0725 498.138 22.1367 498.045 22.225C497.836 22.4625 497.716 22.7719 497.709 23.0953C497.663 23.4235 497.694 23.7583 497.798 24.0713C497.903 24.3556 498.043 24.6244 498.213 24.871C498.382 25.1062 498.64 25.4002 498.954 25.7648C499.288 26.1028 499.596 26.4685 499.874 26.8584C500.12 27.2146 500.306 27.6124 500.424 28.0344C500.562 28.5346 500.596 29.0598 500.525 29.575C500.472 30.28 500.218 30.9519 499.795 31.5037C499.597 31.7346 499.357 31.922 499.09 32.0552C498.822 32.1885 498.532 32.2648 498.236 32.2798L498.135 33.1501L496.654 32.9619L496.766 32.0917C496.478 32.0003 496.21 31.8492 495.979 31.6471C495.748 31.4451 495.557 31.1963 495.42 30.9157C495.135 30.2777 495.045 29.5631 495.162 28.8694L495.251 28.0462L496.957 28.2579L496.845 29.1987C496.755 29.9749 497.024 30.3747 497.641 30.4923C498.258 30.6099 498.617 30.2218 498.707 29.4457C498.752 29.1136 498.721 28.7751 498.617 28.4578C498.518 28.1712 498.378 27.9017 498.202 27.6582C497.972 27.349 497.725 27.0545 497.462 26.7762C497.13 26.4313 496.823 26.0619 496.542 25.6707C496.299 25.3138 496.117 24.9161 496.003 24.4947C495.848 23.9118 495.822 23.2994 495.927 22.7043C496.032 22.1092 496.265 21.547 496.609 21.0608L496.564 21.0373Z" fill="#263238"/>
<path d="M470.5 38.7243C470.841 41.356 470.429 44.0344 469.318 46.4209C468.206 48.8075 466.445 50.7952 464.256 52.1325C462.066 53.4699 459.548 54.0969 457.019 53.9344C454.49 53.7719 452.064 52.8271 450.047 51.2195C448.03 49.6119 446.513 47.4136 445.688 44.9026C444.863 42.3915 444.767 39.6805 445.412 37.1121C446.057 34.5438 447.413 32.2335 449.311 30.4733C451.208 28.7131 453.561 27.582 456.071 27.223C457.739 26.9845 459.436 27.0928 461.064 27.5419C462.692 27.9909 464.22 28.7717 465.56 29.8398C466.9 30.9079 468.026 32.2423 468.873 33.7668C469.721 35.2912 470.274 36.9758 470.5 38.7243Z" fill="white"/>
<path d="M470.5 38.7243C470.841 41.356 470.429 44.0344 469.318 46.4209C468.206 48.8075 466.445 50.7952 464.256 52.1325C462.066 53.4699 459.548 54.0969 457.019 53.9344C454.49 53.7719 452.064 52.8271 450.047 51.2195C448.03 49.6119 446.513 47.4136 445.688 44.9026C444.863 42.3915 444.767 39.6805 445.412 37.1121C446.057 34.5438 447.413 32.2335 449.311 30.4733C451.208 28.7131 453.561 27.582 456.071 27.223C457.739 26.9845 459.436 27.0928 461.064 27.5419C462.692 27.9909 464.22 28.7717 465.56 29.8398C466.9 30.9079 468.026 32.2423 468.873 33.7668C469.721 35.2912 470.274 36.9758 470.5 38.7243V38.7243Z" stroke="#263238" stroke-linecap="round" stroke-linejoin="round"/>
<path d="M468.076 39.0653C468.343 41.1887 468.004 43.3473 467.102 45.2689C466.199 47.1904 464.774 48.7889 463.006 49.8626C461.238 50.9363 459.207 51.4371 457.167 51.302C455.128 51.1668 453.173 50.4016 451.548 49.103C449.923 47.8044 448.701 46.0305 448.037 44.0051C447.373 41.9797 447.296 39.7935 447.816 37.7223C448.336 35.6511 449.429 33.7876 450.958 32.3669C452.487 30.9463 454.383 30.0321 456.408 29.7397C457.759 29.5445 459.133 29.6312 460.452 29.9949C461.771 30.3586 463.008 30.992 464.093 31.8587C465.177 32.7254 466.087 33.8083 466.771 35.0451C467.455 36.2819 467.898 37.6482 468.076 39.0653V39.0653Z" stroke="#263238" stroke-linecap="round" stroke-linejoin="round"/>
<path d="M455.016 35.702C455.282 35.1469 455.745 34.7241 456.307 34.526L456.183 33.6322L457.653 33.4205L457.776 34.3143C458.371 34.3386 458.932 34.6093 459.336 35.0669C459.762 35.6093 460.024 36.2727 460.088 36.972V37.3484L458.382 37.5836L458.326 37.0896C458.31 36.7695 458.187 36.4656 457.978 36.2312C457.776 36.0738 457.524 36.0054 457.274 36.0406C457.025 36.0757 456.798 36.2116 456.643 36.4193C456.5 36.7045 456.46 37.0347 456.531 37.3484C456.564 37.678 456.676 37.9936 456.856 38.2656C457.022 38.5189 457.222 38.7448 457.451 38.936C457.675 39.1124 457.978 39.3358 458.382 39.5945C458.774 39.8409 459.149 40.1159 459.504 40.4177C459.827 40.6901 460.101 41.0206 460.312 41.3938C460.572 41.8366 460.733 42.335 460.783 42.852C460.912 43.547 460.83 44.2667 460.548 44.91C460.413 45.1884 460.226 45.4357 459.999 45.6376C459.771 45.8395 459.508 45.992 459.224 46.086L459.336 46.968L457.866 47.168L457.754 46.2977C457.456 46.2888 457.162 46.2176 456.891 46.0884C456.619 45.9591 456.375 45.7745 456.172 45.5451C455.742 45.0019 455.483 44.3321 455.431 43.6282L455.319 42.8168L457.025 42.5698L457.148 43.5106C457.238 44.2868 457.608 44.6866 458.27 44.5455C458.932 44.4044 459.145 44.0163 459.044 43.2401C459.011 42.9105 458.9 42.5949 458.719 42.3229C458.554 42.0696 458.353 41.8437 458.124 41.6525C457.9 41.4761 457.597 41.2527 457.193 40.994C456.801 40.7512 456.427 40.4801 456.071 40.1825C455.751 39.9029 455.478 39.569 455.263 39.1947C454.973 38.6634 454.8 38.0707 454.757 37.4601C454.715 36.8495 454.803 36.2367 455.016 35.6667V35.702Z" fill="#263238"/>
<path d="M469.76 102.957C469.96 105.605 469.407 108.256 468.171 110.574C466.934 112.893 465.069 114.775 462.812 115.982C460.555 117.19 458.007 117.669 455.49 117.359C452.973 117.048 450.601 115.963 448.673 114.24C446.744 112.516 445.347 110.232 444.657 107.676C443.967 105.121 444.016 102.408 444.797 99.881C445.578 97.3542 447.057 95.1269 449.045 93.4808C451.034 91.8347 453.444 90.8436 455.97 90.6329C457.648 90.4915 459.336 90.6982 460.938 91.2412C462.539 91.7843 464.023 92.6531 465.303 93.7978C466.584 94.9426 467.637 96.3408 468.402 97.9125C469.166 99.4843 469.628 101.199 469.76 102.957Z" fill="white"/>
<path d="M469.76 102.957C469.96 105.605 469.407 108.256 468.171 110.574C466.934 112.893 465.069 114.775 462.812 115.982C460.555 117.19 458.007 117.669 455.49 117.359C452.973 117.048 450.601 115.963 448.673 114.24C446.744 112.516 445.347 110.232 444.657 107.676C443.967 105.121 444.016 102.408 444.797 99.881C445.578 97.3542 447.057 95.1269 449.045 93.4808C451.034 91.8347 453.444 90.8436 455.97 90.6329C457.648 90.4915 459.336 90.6982 460.938 91.2412C462.539 91.7843 464.023 92.6531 465.303 93.7978C466.584 94.9426 467.637 96.3408 468.402 97.9125C469.166 99.4843 469.628 101.199 469.76 102.957V102.957Z" stroke="#263238" stroke-linecap="round" stroke-linejoin="round"/>
<path d="M467.302 103.157C467.471 105.295 467.031 107.438 466.037 109.314C465.044 111.19 463.542 112.714 461.721 113.695C459.901 114.676 457.844 115.068 455.81 114.823C453.777 114.578 451.858 113.706 450.298 112.317C448.737 110.929 447.605 109.086 447.044 107.023C446.483 104.96 446.519 102.768 447.146 100.726C447.774 98.6841 448.966 96.8831 450.57 95.5511C452.175 94.2192 454.121 93.4162 456.161 93.2436C458.891 93.0159 461.597 93.9312 463.685 95.7892C465.773 97.6471 467.074 100.296 467.302 103.157V103.157Z" stroke="#263238" stroke-linecap="round" stroke-linejoin="round"/>
<path d="M454.433 99.1236C454.727 98.5878 455.211 98.1949 455.779 98.0299L455.712 97.1362L457.193 97.0068L457.26 97.9006C457.851 97.9582 458.395 98.2584 458.775 98.7356C459.173 99.3035 459.4 99.9834 459.426 100.688V101.064L457.72 101.205V100.711C457.728 100.39 457.625 100.077 457.429 99.8292C457.236 99.6588 456.987 99.5744 456.735 99.5942C456.483 99.614 456.249 99.7364 456.082 99.9351C455.921 100.213 455.862 100.543 455.914 100.864C455.937 101.192 456.033 101.511 456.195 101.793C456.347 102.056 456.536 102.294 456.756 102.499C457.04 102.757 457.34 102.997 457.653 103.216C458.045 103.485 458.42 103.779 458.775 104.098C459.078 104.393 459.332 104.739 459.527 105.121C459.759 105.584 459.893 106.093 459.92 106.615C460.006 107.314 459.884 108.025 459.572 108.649C459.421 108.916 459.222 109.149 458.985 109.335C458.748 109.52 458.478 109.655 458.192 109.731L458.259 110.613L456.778 110.742L456.711 109.86C456.414 109.833 456.125 109.745 455.861 109.599C455.597 109.454 455.363 109.255 455.174 109.014C454.779 108.444 454.557 107.765 454.534 107.062L454.467 106.238L456.183 106.086L456.251 107.038C456.251 107.826 456.655 108.214 457.272 108.132C457.889 108.049 458.181 107.661 458.124 106.885C458.101 106.553 458.005 106.231 457.844 105.944C457.691 105.682 457.502 105.444 457.283 105.239C457.07 105.051 456.778 104.815 456.385 104.533C455.991 104.265 455.616 103.966 455.263 103.639C454.957 103.345 454.699 102.999 454.5 102.616C454.272 102.157 454.139 101.652 454.108 101.135C454.013 100.445 454.127 99.742 454.433 99.1236Z" fill="#263238"/>
<path d="M544.451 79.8843C543.386 82.2948 541.663 84.32 539.5 85.704C537.336 87.0879 534.83 87.7684 532.298 87.6593C529.766 87.5501 527.321 86.6563 525.274 85.091C523.226 83.5256 521.667 81.3589 520.795 78.8649C519.922 76.371 519.774 73.6618 520.371 71.08C520.967 68.4982 522.281 66.1598 524.145 64.3606C526.01 62.5613 528.342 61.382 530.846 60.9718C533.35 60.5616 535.913 60.939 538.213 62.0561C541.295 63.5537 543.684 66.2731 544.854 69.6164C546.024 72.9596 545.879 76.653 544.451 79.8843Z" fill="white"/>
<path d="M544.451 79.8843C543.386 82.2948 541.663 84.32 539.5 85.704C537.336 87.0879 534.83 87.7684 532.298 87.6593C529.766 87.5501 527.321 86.6563 525.274 85.091C523.226 83.5256 521.667 81.3589 520.795 78.8649C519.922 76.371 519.774 73.6618 520.371 71.08C520.967 68.4982 522.281 66.1598 524.145 64.3606C526.01 62.5613 528.342 61.382 530.846 60.9718C533.35 60.5616 535.913 60.939 538.213 62.0561C541.295 63.5537 543.684 66.2731 544.854 69.6164C546.024 72.9596 545.879 76.653 544.451 79.8843V79.8843Z" stroke="#263238" stroke-linecap="round" stroke-linejoin="round"/>
<path d="M542.218 78.8024C541.357 80.7469 539.965 82.3802 538.218 83.4957C536.471 84.6112 534.448 85.1589 532.405 85.0696C530.361 84.9803 528.388 84.2579 526.736 82.9939C525.084 81.7298 523.827 79.9807 523.123 77.9677C522.419 75.9548 522.3 73.7682 522.781 71.6845C523.263 69.6008 524.323 67.7135 525.827 66.261C527.332 64.8085 529.213 63.8562 531.234 63.5243C533.255 63.1924 535.324 63.4959 537.181 64.3964C538.415 64.9937 539.526 65.8406 540.448 66.8885C541.369 67.9365 542.085 69.1648 542.553 70.5032C543.021 71.8415 543.232 73.2636 543.175 74.6877C543.118 76.1119 542.792 77.5102 542.218 78.8024V78.8024Z" stroke="#263238" stroke-linecap="round" stroke-linejoin="round"/>
<path d="M532.906 68.6183C533.413 68.3039 534.017 68.2109 534.589 68.3595L534.948 67.5481L536.294 68.2067L535.935 69.0181C536.423 69.3712 536.758 69.9124 536.866 70.5234C536.947 71.2227 536.826 71.9313 536.519 72.5579L536.362 72.8989L534.813 72.1463L535.004 71.6876C535.16 71.4074 535.216 71.078 535.161 70.7586C535.125 70.6326 535.062 70.5171 534.976 70.4212C534.891 70.3252 534.785 70.2515 534.667 70.2059C534.554 70.1485 534.429 70.1188 534.303 70.1188C534.176 70.1188 534.052 70.1485 533.938 70.2059C533.674 70.3691 533.472 70.6224 533.366 70.9232C533.226 71.223 533.156 71.5538 533.164 71.8875C533.175 72.1918 533.228 72.4929 533.321 72.7813C533.422 73.0635 533.568 73.4281 533.77 73.8632C533.981 74.297 534.164 74.7449 534.32 75.2039C534.446 75.622 534.506 76.0589 534.499 76.4975C534.484 77.0153 534.366 77.5241 534.151 77.991C533.891 78.6455 533.45 79.2028 532.883 79.5903C532.628 79.7452 532.346 79.8456 532.053 79.886C531.76 79.9263 531.463 79.9058 531.178 79.8255L530.819 80.6252L529.472 79.9666L529.787 79.1317C529.542 78.9566 529.332 78.7324 529.171 78.472C529.009 78.2116 528.898 77.9202 528.844 77.6146C528.761 76.9114 528.883 76.1984 529.192 75.5684L529.529 74.8158L531.088 75.5802L530.707 76.4386C530.393 77.1442 530.516 77.6146 531.088 77.9204C531.66 78.2262 532.098 77.9204 532.412 77.2618C532.545 76.9639 532.61 76.638 532.603 76.3093C532.597 76.0006 532.544 75.6948 532.446 75.4038C532.318 75.0336 532.168 74.6723 531.997 74.3219C531.782 73.89 531.598 73.4418 531.447 72.9812C531.319 72.5677 531.262 72.1337 531.279 71.6994C531.286 71.1804 531.405 70.6698 531.627 70.2059C531.891 69.5541 532.337 69.0009 532.906 68.6183Z" fill="#263238"/>
<path d="M525.478 85.9995C525.478 86.8345 537.427 77.7675 549.04 83.5417C549.04 83.5417 536.9 95.1018 525.153 87.9164C513.405 80.731 515.055 63.1028 515.055 63.1028C515.055 63.1028 526.42 71.4171 525.478 85.9995Z" fill="#42EA72" stroke="#263238" stroke-linecap="round" stroke-linejoin="round"/>
<path d="M498.124 40.1708C498.505 40.8999 503.891 26.4469 516.682 24.6829C516.682 24.6829 512.463 41.2997 498.875 41.9348C485.288 42.5698 477.557 26.8232 477.557 26.8232C477.557 26.8232 491.358 27.3876 498.124 40.1708Z" fill="#42EA72" stroke="#263238" stroke-linecap="round" stroke-linejoin="round"/>
<path d="M459.247 55.3294C459.74 55.988 462.882 40.8176 475.235 36.9603C475.235 36.9603 473.574 54.0711 460.268 56.9523C446.961 59.8335 436.952 45.5569 436.952 45.5569C436.952 45.5569 450.641 43.8517 459.247 55.3294Z" fill="#42EA72" stroke="#263238" stroke-linecap="round" stroke-linejoin="round"/>
</svg>
