<svg width="561" height="588" viewBox="0 0 561 588" fill="none" xmlns="http://www.w3.org/2000/svg">
<path d="M82.7587 528.894C82.7587 528.894 -45.0035 396.006 101.9 298.081C248.803 200.155 188.384 202.366 198.392 140.32C208.4 78.2746 327.916 35.28 370.9 122.598C413.883 209.916 372.65 254.804 453.288 307.23C533.926 359.656 552.506 470.976 496.788 528.882L82.7587 528.894Z" fill="#42EA72"/>
<path d="M300.236 171.378H249.746V128.878" stroke="#263238" stroke-linecap="round" stroke-linejoin="round"/>
<path d="M258.789 163.652H254.75V171.378H258.789V163.652Z" stroke="#263238" stroke-linecap="round" stroke-linejoin="round"/>
<path d="M267.182 161.206H263.143V171.378H267.182V161.206Z" stroke="#263238" stroke-linecap="round" stroke-linejoin="round"/>
<path d="M275.575 157.125H271.535V171.378H275.575V157.125Z" stroke="#263238" stroke-linecap="round" stroke-linejoin="round"/>
<path d="M283.978 153.045H279.939V171.378H283.978V153.045Z" stroke="#263238" stroke-linecap="round" stroke-linejoin="round"/>
<path d="M292.371 147.282H288.332V171.378H292.371V147.282Z" stroke="#263238" stroke-linecap="round" stroke-linejoin="round"/>
<path d="M249.746 163.923C249.746 163.923 282.116 156.69 297.599 135.193" stroke="#263238" stroke-linecap="round" stroke-linejoin="round"/>
<path d="M295.569 134.523L298.71 133.617V137.239" stroke="#263238" stroke-linecap="round" stroke-linejoin="round"/>
<path d="M288.354 107.78C286.918 107.475 285.471 107.216 284.001 107.016" stroke="#263238" stroke-linecap="round" stroke-linejoin="round"/>
<path d="M301.167 195.122C313.173 201.59 329.778 202.096 329.778 202.096C321.42 196.086 315.675 187.266 312.769 182.021C321.644 174.001 327.119 163.099 327.119 151.069C327.119 132.488 314.093 116.565 295.569 109.909" stroke="#263238" stroke-linecap="round" stroke-linejoin="round"/>
<path d="M276.012 195.663C282.96 195.677 289.858 194.428 296.399 191.97" stroke="#263238" stroke-linecap="round" stroke-linejoin="round"/>
<path d="M230.448 171.378C237.707 183.726 251.384 192.746 267.642 195.063" stroke="#263238" stroke-linecap="round" stroke-linejoin="round"/>
<path d="M224.849 151.069C224.85 153.437 225.065 155.799 225.488 158.125" stroke="#263238" stroke-linecap="round" stroke-linejoin="round"/>
<path d="M276.012 106.475C253.314 106.475 234.06 119.411 227.396 137.239" stroke="#263238" stroke-linecap="round" stroke-linejoin="round"/>
<path d="M364.549 225.38C364.549 225.38 342.996 232.037 338.137 242.856C333.279 253.675 323.551 283.898 323.551 283.898C323.551 283.898 314.441 300.762 314.441 305.854C314.441 310.946 327.905 329.833 333.986 334.925C340.067 340.017 362.765 306.489 362.765 306.489L364.549 225.38Z" fill="white" stroke="#263238" stroke-linecap="round" stroke-linejoin="round"/>
<path d="M461.984 375.767C462.264 376.026 463.106 387.339 463.106 387.339C463.106 387.339 468.861 399.252 468.794 417.48C468.727 435.708 474.326 529.071 474.326 529.071H336.6C336.6 529.071 346.171 459.075 359.747 423.654C359.747 423.654 360.162 394.583 367.601 386.481C367.601 386.481 364.37 374.556 370.967 373.086C377.564 371.616 461.984 375.767 461.984 375.767Z" fill="#999999"/>
<path opacity="0.2" d="M474.326 529.071H336.6C336.6 529.071 346.171 459.075 359.747 423.654C359.747 423.654 359.825 418.127 360.532 411.212C366.872 414.411 375.231 419.021 377.564 422.184C381.48 427.476 367.579 435.202 367.579 435.202C368.839 436.633 370.392 437.744 372.122 438.453C373.852 439.162 375.713 439.45 377.564 439.295C383.724 438.648 407.959 432.85 407.959 432.85C407.959 432.85 398.905 438.648 400.004 442.764C401.104 446.88 411.056 460.286 416.464 463.579C421.872 466.872 405.468 460.286 405.468 460.286C405.468 460.286 424.116 491.874 435.336 498.189C446.556 504.504 469.479 484.959 466.191 483.336C462.904 481.713 449.574 462.697 451.998 459.499C453.389 457.652 461.636 462.509 470.724 464.932C472.362 495.672 474.326 529.071 474.326 529.071Z" fill="black"/>
<path d="M461.984 375.767C462.264 376.026 463.106 387.339 463.106 387.339C463.106 387.339 468.861 399.252 468.794 417.48C468.727 435.708 474.326 529.071 474.326 529.071H336.6C336.6 529.071 346.171 459.075 359.747 423.654C359.747 423.654 360.162 394.583 367.601 386.481C367.601 386.481 364.37 374.556 370.967 373.086C377.564 371.616 461.984 375.767 461.984 375.767Z" stroke="#263238" stroke-linecap="round" stroke-linejoin="round"/>
<path d="M370.541 376.191C370.063 379.559 370.063 382.983 370.541 386.351C380.749 393.505 392.602 397.655 404.863 398.37C424.677 399.252 452.929 393.666 460.682 388.962V377.79L370.541 376.191Z" fill="#263238"/>
<path d="M383.163 382.282C383.163 382.282 381.48 391.608 383.163 395.136C384.846 398.664 400.06 399.628 400.06 399.628L399.578 386.351L383.163 382.282Z" fill="#BFBFBF" stroke="#263238" stroke-linecap="round" stroke-linejoin="round"/>
<path d="M435.336 401.381C434.958 396.313 434.185 391.287 433.025 386.351L428.323 386.481C428.323 386.481 430.848 395.571 429.445 401.381" fill="#999999"/>
<path d="M435.336 401.381C434.958 396.313 434.185 391.287 433.025 386.351L428.323 386.481C428.323 386.481 430.848 395.571 429.445 401.381" stroke="#263238" stroke-linecap="round" stroke-linejoin="round"/>
<path opacity="0.2" d="M363.371 279.394L362.788 306.442C358.126 313.262 353.095 319.795 347.719 326.011C347.439 322.483 347.102 318.308 346.698 313.557C344.824 291.601 351.938 273.961 351.512 272.656L363.371 279.394Z" fill="#42EA72"/>
<path d="M354.664 229.32C359.104 227.123 363.647 225.161 368.274 223.44C368.858 221.841 367.466 217.066 381.514 209.434C395.561 201.802 415.847 206.576 415.847 206.576L423.701 216.76C423.701 216.76 451.022 228.156 457.361 233.906C463.7 239.657 469.019 374.38 463.745 379.201C448.688 392.96 384.846 394.842 367.534 376.614C363.786 372.686 361.262 344.251 354.07 302.056C354.07 302.056 340.393 269.128 341.133 251.111" fill="white"/>
<path d="M354.664 229.32C359.104 227.123 363.647 225.161 368.274 223.44C368.858 221.841 367.466 217.066 381.514 209.434C395.561 201.802 415.847 206.576 415.847 206.576L423.701 216.76C423.701 216.76 451.022 228.156 457.361 233.906C463.7 239.657 469.019 374.38 463.745 379.201C448.688 392.96 384.846 394.842 367.534 376.614C363.786 372.686 361.262 344.251 354.07 302.056C354.07 302.056 340.393 269.128 341.133 251.111" stroke="#263238" stroke-linecap="round" stroke-linejoin="round"/>
<path opacity="0.2" d="M423.286 218.889C423.286 218.889 424.789 233.001 410.944 242.409C410.944 242.409 404.582 238.14 400.094 237.705C395.606 237.27 394.058 238.881 394.058 238.881C394.058 238.881 393.115 233.354 395.27 229.72C397.424 226.086 401.643 228.885 408.576 238.881C408.621 238.881 420.346 232.848 423.286 218.889Z" fill="#42EA72"/>
<path opacity="0.2" d="M380.493 233.918C380.493 233.918 375.029 234.177 372.291 238.881C369.553 243.585 368.723 245.349 368.723 245.349C368.723 245.349 364.325 240.786 367.601 226.674C367.239 230.749 367.413 234.856 368.117 238.881C368.117 238.881 370.944 227.968 372.313 227.826C373.682 227.685 376.409 228.532 380.493 233.918Z" fill="#42EA72"/>
<path d="M372.291 202.684C374.563 205.263 376.183 208.397 377.004 211.801C377.825 215.204 377.821 218.769 376.992 222.17L386.832 238.881L392.891 224.087C392.891 224.087 406.927 220.265 411.022 210.245C405.097 198.625 402.827 185.338 404.537 172.284C407.286 150.128 372.291 202.684 372.291 202.684Z" fill="#BFBFBF" stroke="#263238" stroke-linecap="round" stroke-linejoin="round"/>
<path d="M405.412 182.562C409.754 148.599 400.049 135.052 374.568 136.957C349.088 138.862 348.673 168.709 354.754 181.375C356.796 185.632 356.134 194.946 368.801 209.834C373.66 215.549 386.417 211.245 395.55 201.813" fill="#BFBFBF"/>
<path d="M405.412 182.562C409.754 148.599 400.049 135.052 374.568 136.957C349.088 138.862 348.673 168.709 354.754 181.375C356.796 185.632 356.134 194.946 368.801 209.834C373.66 215.549 386.417 211.245 395.55 201.813" stroke="#263238" stroke-linecap="round" stroke-linejoin="round"/>
<path d="M367.511 174.354C367.511 174.354 370.013 169.709 376.846 174.354" stroke="#263238" stroke-linecap="round" stroke-linejoin="round"/>
<path d="M357.267 174.354C357.267 174.354 353.565 171.143 352.454 174.354" stroke="#263238" stroke-linecap="round" stroke-linejoin="round"/>
<path d="M373.536 181.363C373.828 182.539 373.536 183.621 372.818 183.809C372.1 183.997 371.337 183.209 371.057 182.045C370.776 180.881 371.057 179.787 371.775 179.599C372.493 179.411 373.256 180.199 373.536 181.363Z" fill="#263238"/>
<path d="M359.792 181.363C360.084 182.539 359.792 183.621 359.074 183.809C358.356 183.997 357.593 183.209 357.301 182.045C357.009 180.881 357.301 179.787 358.03 179.599C358.76 179.411 359.511 180.199 359.792 181.363Z" fill="#263238"/>
<path d="M360.364 176.953C363.18 181.01 360.577 186.126 359.657 190.077C358.737 194.028 364.437 193.781 366.03 192.429" stroke="#263238" stroke-linecap="round" stroke-linejoin="round"/>
<path d="M391.634 179.563C391.634 179.563 389.244 171.625 394.372 167.698C399.5 163.77 399.152 187.454 399.152 187.454L404.044 190.324C404.044 190.324 411.101 170.755 407.69 156.432C404.279 142.108 390.456 131.959 371.382 137.369C345.789 144.613 351.545 166.58 351.545 166.58C351.545 166.58 352.667 160.371 353.879 160.7C355.091 161.03 359.152 165.11 379.001 157.949C379.001 157.949 381.245 159.983 380.74 165.005C380.235 170.026 388.751 174.495 390.075 182.856L391.634 179.563Z" fill="#999999"/>
<path opacity="0.4" d="M391.634 179.563C391.634 179.563 389.244 171.625 394.372 167.698C399.5 163.77 399.152 187.454 399.152 187.454L404.044 190.324C404.044 190.324 411.101 170.755 407.69 156.432C404.279 142.108 390.456 131.959 371.382 137.369C345.789 144.613 351.545 166.58 351.545 166.58C351.545 166.58 352.667 160.371 353.879 160.7C355.091 161.03 359.152 165.11 379.001 157.949C379.001 157.949 381.245 159.983 380.74 165.005C380.235 170.026 388.751 174.495 390.075 182.856L391.634 179.563Z" fill="black"/>
<path d="M391.634 179.563C391.634 179.563 389.244 171.625 394.372 167.698C399.5 163.77 399.152 187.454 399.152 187.454L404.044 190.324C404.044 190.324 411.101 170.755 407.69 156.432C404.279 142.108 390.456 131.959 371.382 137.369C345.789 144.613 351.545 166.58 351.545 166.58C351.545 166.58 352.667 160.371 353.879 160.7C355.091 161.03 359.152 165.11 379.001 157.949C379.001 157.949 381.245 159.983 380.74 165.005C380.235 170.026 388.751 174.495 390.075 182.856L391.634 179.563Z" stroke="#263238" stroke-linecap="round" stroke-linejoin="round"/>
<path d="M358.636 193.817C360.321 194.483 362.142 194.677 363.921 194.381L365.043 195.686L366.064 194.51C366.064 194.51 372.324 195.369 375.399 194.51C378.473 193.652 381.659 195.686 383.253 195.686C383.253 195.686 390.074 187.102 389.401 182.68C389.168 180.744 388.793 178.829 388.279 176.953C388.279 176.953 389.57 178.188 390.254 177.952C390.481 177.901 390.686 177.777 390.843 177.598C391 177.419 391.1 177.194 391.129 176.953C391.129 176.953 397.76 191.065 397.614 202.495C397.614 202.495 390.03 215.702 379.977 216.455C368.7 217.29 362.844 212.691 362.844 212.691C361.686 208.982 361.352 205.044 361.867 201.178C361.088 200.337 360.187 199.631 359.197 199.085C358.762 197.368 358.573 195.592 358.636 193.817Z" fill="#263238"/>
<path d="M353.845 160.736C352.194 159.85 350.855 158.434 350.023 156.696C349.192 154.957 348.911 152.986 349.223 151.069C350.277 144.225 355.136 141.837 358.625 139.779C358.625 139.779 365.738 133.405 378.967 132.618C394.899 131.665 410.383 140.414 406.748 153.315C406.748 153.315 384.308 143.284 378.967 158.019C378.967 157.984 363.528 167.368 353.845 160.736Z" fill="#263238"/>
<path d="M392.857 172.284C392.857 172.284 397.861 162.206 401.205 165.546C404.548 168.885 403.628 173.778 402.495 178.482C401.362 183.186 400.969 182.386 398.849 184.526C396.728 186.667 394.473 188.842 393.687 186.514C393.216 185.177 393.077 183.736 393.284 182.327" fill="#BFBFBF"/>
<path d="M392.857 172.284C392.857 172.284 397.861 162.206 401.205 165.546C404.548 168.885 403.628 173.778 402.495 178.482C401.362 183.186 400.969 182.386 398.849 184.526C396.728 186.667 394.473 188.842 393.687 186.514C393.216 185.177 393.077 183.736 393.284 182.327" stroke="#263238" stroke-linecap="round" stroke-linejoin="round"/>
<path d="M377.463 201.543C368.487 201.778 365.548 200.367 365.548 200.367C365.441 200.535 365.29 200.668 365.113 200.75C364.935 200.831 364.74 200.857 364.549 200.826L366.03 204.036C366.03 204.036 367.511 205 371.348 205C374.591 205 377.463 201.543 377.463 201.543Z" fill="white"/>
<path opacity="0.2" d="M369.789 158.231C369.789 158.231 366.142 150.587 375.702 145.942C385.261 141.296 400.745 143.072 404.504 148.294" stroke="white" stroke-linecap="round" stroke-linejoin="round"/>
<path opacity="0.2" d="M359.904 159.654C359.904 159.654 349.402 159.183 357.2 148.446C364.998 137.71 381.514 134.334 381.514 134.334" stroke="white" stroke-linecap="round" stroke-linejoin="round"/>
<path d="M423.735 216.772C422.857 221.371 421.055 225.72 418.45 229.532C415.844 233.344 412.493 236.531 408.621 238.881C408.621 238.881 401.373 227.568 397.558 227.826C395.696 227.944 392.857 233.918 392.857 233.918" stroke="#263238" stroke-linecap="round" stroke-linejoin="round"/>
<path d="M368.274 223.44C366.973 228.85 367.881 239.598 367.881 239.598C367.881 239.598 371.034 228.873 372.291 227.838C374.535 225.933 381.514 235.235 381.514 235.235" stroke="#263238" stroke-linecap="round" stroke-linejoin="round"/>
<path d="M386.798 238.881L381.48 242.538C381.48 242.538 387.471 249.535 386.765 255.898C386.058 262.26 388.212 276.266 388.212 276.266" stroke="#263238" stroke-linecap="round" stroke-linejoin="round"/>
<path d="M335.983 303.185C339.611 310.66 341.063 319.089 340.157 327.422C340.157 327.422 332.303 338.829 326.278 340.534C311.624 344.674 302.794 310.535 285.19 264.694C284.068 261.754 294.065 246.219 294.065 246.219L323.136 293.624C325.854 294.014 328.442 295.088 330.678 296.752C332.915 298.417 334.735 300.624 335.983 303.185Z" fill="#BFBFBF" stroke="#263238" stroke-linecap="round" stroke-linejoin="round"/>
<path d="M292.842 249.665L285.381 239.081C285.381 239.081 274.161 232.331 272.915 236.364C271.086 242.409 261.886 244.196 261.886 244.196C262.694 247.289 271.681 261.072 276.775 264.188C281.869 267.305 282.385 268.222 284.483 268.892C289.813 270.386 291.08 266.376 291.08 266.376" fill="#BFBFBF"/>
<path d="M292.842 249.665L285.381 239.081C285.381 239.081 274.161 232.331 272.915 236.364C271.086 242.409 261.886 244.196 261.886 244.196C262.694 247.289 271.681 261.072 276.775 264.188C281.869 267.305 282.385 268.222 284.483 268.892C289.813 270.386 291.08 266.376 291.08 266.376" stroke="#263238" stroke-linecap="round" stroke-linejoin="round"/>
<path d="M233.466 295.752C233.466 295.752 192.479 255.839 243.384 241.421C294.289 227.003 280.904 279.806 280.904 279.806L277.538 280.417C277.538 280.417 290.879 233.166 245.112 245.49C199.346 257.814 235.362 293.341 235.362 293.341L233.466 295.752Z" fill="#757575" stroke="#263238" stroke-linecap="round" stroke-linejoin="round"/>
<path d="M287.939 256.885C279.333 252.487 282.329 244.432 273.959 239.351C271.715 237.987 264.433 238.822 262.133 237.129C258.677 234.6 259.889 232.86 259.979 232.554C260.091 231.86 262.514 234.118 270.772 231.672C274.071 230.696 283.114 233.659 285.942 236.247C292.584 242.291 298.362 249.418 297.734 254.992C297.375 258.203 293.964 259.496 293.964 259.496" fill="#BFBFBF"/>
<path d="M287.939 256.885C279.333 252.487 282.329 244.432 273.959 239.351C271.715 237.987 264.433 238.822 262.133 237.129C258.677 234.6 259.889 232.86 259.979 232.554C260.091 231.86 262.514 234.118 270.772 231.672C274.071 230.696 283.114 233.659 285.942 236.247C292.584 242.291 298.362 249.418 297.734 254.992C297.375 258.203 293.964 259.496 293.964 259.496" stroke="#263238" stroke-linecap="round" stroke-linejoin="round"/>
<path d="M263.255 243.244C263.255 243.244 270.469 241.398 272.769 241.421C275.934 241.421 276.932 241.915 277.684 243.326C277.886 243.829 277.978 244.373 277.955 244.918C277.932 245.463 277.793 245.996 277.549 246.478C278.709 247.055 279.63 248.054 280.141 249.289C280.39 250.629 280.128 252.017 279.412 253.158C280.662 253.545 281.795 254.266 282.699 255.251C283.148 255.707 283.416 256.324 283.449 256.978C283.482 257.632 283.278 258.275 282.879 258.779C282.879 258.779 286.94 261.695 284.685 263.483C282.43 265.27 276.27 267.846 273.465 267.564C270.66 267.281 253.078 244.879 263.255 243.244Z" fill="#BFBFBF" stroke="#263238" stroke-linecap="round" stroke-linejoin="round"/>
<path d="M277.549 246.478C277.549 246.478 266.082 250.159 262.963 250.076" stroke="#263238" stroke-linecap="round" stroke-linejoin="round"/>
<path d="M279.378 253.158C279.378 253.158 269.617 256.838 267.608 257.25" stroke="#263238" stroke-linecap="round" stroke-linejoin="round"/>
<path d="M282.879 258.72C279.378 260.258 275.788 261.562 272.13 262.624" stroke="#263238" stroke-linecap="round" stroke-linejoin="round"/>
<path d="M232.703 289.672C232.703 289.672 245.269 267.14 276.461 271.174L302.099 327.104C302.099 327.104 286.009 359.092 240.49 351.518L232.703 289.672Z" fill="#757575" stroke="#263238" stroke-linecap="round" stroke-linejoin="round"/>
<path d="M244.776 334.396C244.776 334.396 217.343 313.063 198.774 334.795L207.211 341.416C207.211 341.416 215.862 322.353 245.079 345.885" fill="#757575"/>
<path d="M244.776 334.396C244.776 334.396 217.343 313.063 198.774 334.795L207.211 341.416C207.211 341.416 215.862 322.353 245.079 345.885" stroke="#263238" stroke-linecap="round" stroke-linejoin="round"/>
<path d="M235.317 289.908C235.317 289.908 264.904 292.965 274.071 272.703L235.317 289.908Z" fill="#757575"/>
<path d="M235.317 289.908C235.317 289.908 264.904 292.965 274.071 272.703" stroke="#263238" stroke-linecap="round" stroke-linejoin="round"/>
<path d="M183.144 336.701C183.144 336.701 194.79 328.127 205.113 334.443C208.004 336.168 210.313 338.792 211.72 341.952C213.127 345.112 213.563 348.652 212.967 352.083C212.967 352.083 197.472 353.353 183.144 336.701Z" fill="#757575" stroke="#263238" stroke-linecap="round" stroke-linejoin="round"/>
<path d="M188.844 336.748C188.844 336.748 206.953 341.816 213.012 352.106" stroke="#263238" stroke-linecap="round" stroke-linejoin="round"/>
<path d="M258.733 275.478L256.635 266.317C256.635 266.317 244.955 265.988 240.927 273.032L246.133 280.253" fill="#757575"/>
<path d="M258.733 275.478L256.635 266.317C256.635 266.317 244.955 265.988 240.927 273.032L246.133 280.253" stroke="#263238" stroke-linecap="round" stroke-linejoin="round"/>
<path d="M258.06 277.395C255.748 278.734 253.196 279.555 250.565 279.806" stroke="#263238" stroke-linecap="round" stroke-linejoin="round"/>
<path d="M248.287 336.218C248.287 336.218 250.924 339.97 247.614 344.744" stroke="#263238" stroke-linecap="round" stroke-linejoin="round"/>
<path opacity="0.2" d="M458.528 290.072C458.528 290.072 447.678 329.28 423.746 348.872C412.818 357.822 362.799 343.38 362.799 343.38L366.041 323.059L382.423 314.921C382.423 314.921 411.415 267.352 427.123 262.636C442.831 257.92 458.528 290.072 458.528 290.072Z" fill="#42EA72"/>
<path d="M444.39 234.906C432.845 235.247 402.495 293.541 402.495 293.541C394.271 296.811 398.187 304.361 398.187 304.361C398.187 304.361 417.474 329.997 421.12 332.185C430.096 337.594 433.339 328.127 433.339 328.127C433.339 328.127 471.24 292.036 468.659 262.648C466.079 233.26 457.439 233.918 457.439 233.918" fill="white"/>
<path d="M444.39 234.906C432.845 235.247 402.495 293.541 402.495 293.541C394.271 296.811 398.187 304.361 398.187 304.361C398.187 304.361 417.474 329.997 421.12 332.185C430.096 337.594 433.339 328.127 433.339 328.127C433.339 328.127 471.24 292.036 468.659 262.648C466.079 233.26 457.439 233.918 457.439 233.918" stroke="#263238" stroke-linecap="round" stroke-linejoin="round"/>
<path d="M400.206 302.079L388.65 315.168C364.089 312.663 319.31 332.161 306.362 325.07C298.834 320.942 280.758 325.188 278.065 326.611C275.373 328.033 269.684 335.419 271.793 336.371C273.903 337.324 278.525 332.914 281.151 333.314C283.568 333.512 285.997 333.489 288.41 333.243C288.41 333.243 277.022 344.568 274.475 345.05C271.928 345.532 258.991 351.318 263.681 352.33C270.245 353.741 272.747 353.035 272.747 353.035C272.747 353.035 278.671 357.445 283.081 357.916C285.325 358.163 297.779 355.811 297.779 355.811L309.156 344.439C309.156 344.439 384.869 348.566 398.187 342.698C415.555 335.054 421.12 328.739 421.12 328.739C421.12 328.739 413.771 306.395 400.206 302.079Z" fill="#BFBFBF" stroke="#263238" stroke-linecap="round" stroke-linejoin="round"/>
<path d="M389.177 398.088C388.919 398.029 383.32 432.768 391.242 440.118C391.242 440.118 395.819 456.711 394.967 468.119C394.114 479.526 400.06 502.74 400.06 502.74L404.032 529.071" stroke="#263238" stroke-linecap="round" stroke-linejoin="round"/>
<path d="M394.944 399.111C394.944 399.111 392.139 416.304 393.261 422.478C394.383 428.652 391.948 434.991 388.538 435.202" stroke="#263238" stroke-linecap="round" stroke-linejoin="round"/>
<path d="M447.263 393.866C447.263 393.866 452.357 422.502 460.727 424.865" stroke="#263238" stroke-linecap="round" stroke-linejoin="round"/>
<path d="M457.496 389.915C460.086 404.251 461.155 418.844 460.682 433.427C460.02 458.64 465.462 509.208 465.967 515.382C466.252 519.94 466.252 524.513 465.967 529.071" stroke="#263238" stroke-linecap="round" stroke-linejoin="round"/>
<path d="M412.526 431.204C410.372 432.18 384.005 440.412 378.956 446.88" stroke="#263238" stroke-linecap="round" stroke-linejoin="round"/>
<path d="M394.944 447.539C394.944 447.539 413.154 470.694 421.995 473.046" stroke="#263238" stroke-linecap="round" stroke-linejoin="round"/>
<path d="M387.012 449.82C387.012 449.82 359.04 478.632 354.115 475.363" stroke="#263238" stroke-linecap="round" stroke-linejoin="round"/>
<path d="M395.741 483.336C395.741 483.336 388.021 515.323 388.537 518.875C389.053 522.426 385.912 529.071 385.912 529.071" stroke="#263238" stroke-linecap="round" stroke-linejoin="round"/>
<path d="M388.212 357.939C388.212 357.939 389.906 367.159 388.212 372.768C386.518 378.378 388.369 386.88 390.692 387.327" stroke="#263238" stroke-linecap="round" stroke-linejoin="round"/>
<path d="M323.136 293.624C323.136 293.624 332.112 303.784 332.112 311.675" stroke="#263238" stroke-linecap="round" stroke-linejoin="round"/>
<path d="M209.533 357.939C209.533 357.939 208.793 360.444 207.75 364.736" stroke="#263238" stroke-linecap="round" stroke-linejoin="round"/>
<path d="M206.145 371.722C205.483 374.862 204.776 378.425 204.103 382.306" stroke="#263238" stroke-linecap="round" stroke-linejoin="round" stroke-dasharray="6.11 6.11"/>
<path d="M203.52 385.846C203.172 388.092 202.824 390.42 202.521 392.831" stroke="#263238" stroke-linecap="round" stroke-linejoin="round"/>
<path d="M194.252 351.812C194.252 351.812 192.872 354.058 190.886 357.904" stroke="#263238" stroke-linecap="round" stroke-linejoin="round"/>
<path d="M186.499 366.994C184.445 371.596 182.621 376.306 181.035 381.106" stroke="#263238" stroke-linecap="round" stroke-linejoin="round" stroke-dasharray="8.66 8.66"/>
<path d="M179.52 385.999C178.892 388.233 178.323 390.51 177.815 392.831" stroke="#263238" stroke-linecap="round" stroke-linejoin="round"/>
<path d="M183.144 342.122C181.054 342.986 179.084 344.141 177.287 345.556" stroke="#263238" stroke-linecap="round" stroke-linejoin="round"/>
<path d="M171.229 350.448C168.321 353.053 165.619 355.9 163.15 358.962" stroke="#263238" stroke-linecap="round" stroke-linejoin="round" stroke-dasharray="6.82 6.82"/>
<path d="M160.771 362.102C159.432 363.987 158.196 365.95 157.069 367.982" stroke="#263238" stroke-linecap="round" stroke-linejoin="round"/>
<path d="M402.495 293.541C410.933 294.882 423.275 311.052 425.519 317.226" stroke="#263238" stroke-linecap="round" stroke-linejoin="round"/>
<path d="M465.967 272.703C465.967 272.703 445.715 285.639 425.519 286.944" stroke="#263238" stroke-linecap="round" stroke-linejoin="round"/>
<path d="M322.014 286.944C322.014 286.944 332.426 284.733 337.722 293.624C340.993 299.182 343.363 305.27 344.735 311.64" stroke="#263238" stroke-linecap="round" stroke-linejoin="round"/>
<path d="M336.6 267.493C336.6 267.493 341.638 279.077 347.54 283.886" stroke="#263238" stroke-linecap="round" stroke-linejoin="round"/>
<path d="M388.212 301.056C388.681 305.743 388.823 310.459 388.638 315.168" stroke="#263238" stroke-linecap="round" stroke-linejoin="round"/>
<path d="M371.943 355.152C371.943 355.152 394.103 381.294 428.324 374.25" stroke="#263238" stroke-linecap="round" stroke-linejoin="round"/>
<path d="M390.086 245.784C390.075 246.042 389.992 246.29 389.847 246.499C389.703 246.708 389.503 246.867 389.272 246.958C389.042 247.049 388.791 247.067 388.551 247.009C388.311 246.952 388.093 246.822 387.923 246.636C387.752 246.45 387.638 246.215 387.594 245.961C387.55 245.708 387.578 245.446 387.674 245.209C387.771 244.971 387.932 244.769 388.137 244.627C388.342 244.484 388.583 244.408 388.829 244.408C389.169 244.417 389.492 244.567 389.728 244.825C389.963 245.083 390.092 245.427 390.086 245.784Z" fill="#263238"/>
<path d="M391.645 280.417C391.634 280.675 391.551 280.924 391.407 281.132C391.262 281.341 391.062 281.501 390.832 281.591C390.602 281.682 390.351 281.7 390.111 281.643C389.871 281.585 389.652 281.456 389.482 281.269C389.312 281.083 389.198 280.848 389.154 280.594C389.11 280.341 389.137 280.079 389.234 279.842C389.331 279.604 389.491 279.402 389.697 279.26C389.902 279.118 390.143 279.042 390.389 279.041C390.558 279.044 390.724 279.082 390.879 279.153C391.034 279.224 391.174 279.327 391.291 279.455C391.408 279.583 391.499 279.734 391.56 279.899C391.621 280.064 391.65 280.24 391.645 280.417Z" fill="#263238"/>
<path d="M40.3921 529.071H520.608" stroke="#263238" stroke-linecap="round" stroke-linejoin="round"/>
<path d="M138.59 461.521C138.59 461.521 156.71 454.853 144.906 417.327C133.103 379.801 148.205 380.624 154.937 361.643C161.669 342.663 151.728 329.809 151.728 329.809" stroke="#263238" stroke-width="3" stroke-linecap="round" stroke-linejoin="round"/>
<path d="M147.543 452.243H94.8091C94.8091 452.243 101.923 508.408 103.976 524.661C104.346 527.612 106.59 529.071 109.305 529.071H182.415C185.13 529.071 187.374 527.612 187.744 524.661C189.798 508.408 196.911 452.243 196.911 452.243H147.543Z" fill="#263238"/>
<path d="M92.8568 447.539H198.863C199.527 447.539 200.163 447.815 200.633 448.307C201.102 448.798 201.365 449.466 201.365 450.161V454.312C201.365 455.008 201.102 455.675 200.633 456.167C200.163 456.659 199.527 456.935 198.863 456.935H92.8568C92.1902 456.935 91.551 456.657 91.0796 456.163C90.6083 455.669 90.3435 454.999 90.3435 454.301V450.149C90.3435 449.803 90.4085 449.461 90.5348 449.141C90.6611 448.822 90.8463 448.531 91.0796 448.287C91.313 448.042 91.5901 447.848 91.895 447.716C92.1999 447.583 92.5267 447.515 92.8568 447.515V447.539Z" fill="#263238"/>
<path d="M100.43 456.947H153.916" stroke="white" stroke-linecap="round" stroke-linejoin="round"/>
<path d="M160.648 456.947H164.766" stroke="white" stroke-linecap="round" stroke-linejoin="round"/>
<path d="M189.45 456.947H181.966" stroke="white" stroke-linecap="round" stroke-linejoin="round"/>
<path d="M104.548 475.363H125.496" stroke="white" stroke-linecap="round" stroke-linejoin="round"/>
<path d="M137.456 475.363H143.066" stroke="white" stroke-linecap="round" stroke-linejoin="round"/>
<path d="M187.946 475.363H167.75" stroke="white" stroke-linecap="round" stroke-linejoin="round"/>
<path d="M185.702 490.651H181.966" stroke="white" stroke-linecap="round" stroke-linejoin="round"/>
<path d="M125.496 490.651H117.642" stroke="white" stroke-linecap="round" stroke-linejoin="round"/>
<path d="M162.701 505.551H175.604" stroke="white" stroke-linecap="round" stroke-linejoin="round"/>
<path d="M132.598 505.551H112.402" stroke="white" stroke-linecap="round" stroke-linejoin="round"/>
<path d="M108.284 518.875H115.016" stroke="white" stroke-linecap="round" stroke-linejoin="round"/>
<path d="M125.496 518.875H164.766" stroke="white" stroke-linecap="round" stroke-linejoin="round"/>
<path d="M183.84 518.875H177.848" stroke="white" stroke-linecap="round" stroke-linejoin="round"/>
<path d="M165.125 488.299C165.127 492.293 163.999 496.198 161.883 499.52C159.768 502.842 156.76 505.432 153.24 506.962C149.72 508.492 145.846 508.894 142.108 508.116C138.371 507.338 134.937 505.416 132.242 502.592C129.546 499.769 127.71 496.171 126.966 492.254C126.222 488.337 126.603 484.276 128.061 480.586C129.518 476.896 131.988 473.742 135.156 471.522C138.324 469.303 142.049 468.119 145.86 468.119C150.967 468.119 155.866 470.244 159.478 474.028C163.091 477.813 165.122 482.946 165.125 488.299Z" fill="#42EA72" stroke="#263238" stroke-linecap="round" stroke-linejoin="round"/>
<path d="M144.357 479.008V477.656H147.364V479.008C149.967 479.432 151.291 480.984 151.291 483.454V484.03H147.824V483.336C147.824 482.031 147.162 481.537 145.995 481.537C144.828 481.537 144.166 482.031 144.166 483.336C144.166 484.641 144.828 485.535 147.296 487.076C150.292 488.946 151.324 490.368 151.324 492.45C151.324 494.92 149.967 496.507 147.364 496.919V498.248H144.357V496.86C141.731 496.448 140.396 494.861 140.396 492.391V491.145H143.863V492.579C143.863 493.873 144.592 494.343 145.759 494.343C146.926 494.343 147.667 493.873 147.667 492.579C147.667 491.286 146.993 490.345 144.525 488.828C141.529 486.993 140.497 485.535 140.497 483.454C140.497 480.984 141.799 479.455 144.357 479.008Z" fill="white" stroke="#263238" stroke-linecap="round" stroke-linejoin="round"/>
<path d="M161.849 488.299C161.855 491.615 160.923 494.858 159.17 497.619C157.418 500.379 154.923 502.532 152.002 503.806C149.081 505.08 145.865 505.417 142.762 504.774C139.658 504.132 136.806 502.538 134.566 500.196C132.327 497.854 130.801 494.868 130.181 491.616C129.562 488.365 129.876 484.993 131.085 481.929C132.295 478.865 134.344 476.246 136.974 474.403C139.604 472.56 142.696 471.576 145.86 471.576C150.094 471.579 154.154 473.341 157.15 476.475C160.147 479.61 161.837 483.861 161.849 488.299V488.299Z" stroke="#263238" stroke-linecap="round" stroke-linejoin="round"/>
<path d="M143.459 412.447C143.459 412.447 147.307 391.549 163.419 389.915C179.531 388.28 181.371 375.05 181.371 375.05" stroke="#263238" stroke-width="3" stroke-linecap="round" stroke-linejoin="round"/>
<path d="M145.097 376.214C145.097 376.214 141.181 374.238 126.663 364.972C112.144 355.705 112.705 340.934 112.705 340.934" stroke="#263238" stroke-width="3" stroke-linecap="round" stroke-linejoin="round"/>
<path d="M148.205 431.204C148.205 431.204 119.785 430.028 115.566 405.591" stroke="#263238" stroke-width="3" stroke-linecap="round" stroke-linejoin="round"/>
<path d="M166.168 319.366C165.861 322.003 164.815 324.485 163.162 326.498C161.509 328.512 159.323 329.966 156.881 330.678C154.44 331.389 151.851 331.325 149.444 330.495C147.037 329.665 144.919 328.105 143.357 326.013C141.796 323.921 140.861 321.39 140.672 318.741C140.483 316.092 141.047 313.444 142.294 311.132C143.541 308.819 145.414 306.946 147.676 305.749C149.939 304.552 152.489 304.085 155.004 304.408C158.377 304.84 161.448 306.659 163.542 309.464C165.635 312.269 166.58 315.831 166.168 319.366Z" fill="white"/>
<path d="M166.168 319.366C165.861 322.003 164.815 324.485 163.162 326.498C161.509 328.512 159.323 329.966 156.881 330.678C154.44 331.389 151.851 331.325 149.444 330.495C147.037 329.665 144.919 328.105 143.357 326.013C141.796 323.921 140.861 321.39 140.672 318.741C140.483 316.092 141.047 313.444 142.294 311.132C143.541 308.819 145.414 306.946 147.676 305.749C149.939 304.552 152.489 304.085 155.004 304.408C158.377 304.84 161.448 306.659 163.542 309.464C165.635 312.269 166.58 315.831 166.168 319.366V319.366Z" stroke="#263238" stroke-linecap="round" stroke-linejoin="round"/>
<path d="M163.722 319.049C163.473 321.179 162.627 323.183 161.29 324.809C159.953 326.434 158.186 327.607 156.213 328.179C154.239 328.751 152.148 328.697 150.205 328.023C148.261 327.349 146.552 326.085 145.293 324.392C144.035 322.699 143.285 320.653 143.137 318.513C142.989 316.372 143.45 314.234 144.462 312.369C145.474 310.503 146.992 308.995 148.823 308.034C150.653 307.073 152.715 306.703 154.746 306.971C157.464 307.327 159.936 308.798 161.619 311.063C163.302 313.328 164.059 316.2 163.722 319.049Z" stroke="#263238" stroke-linecap="round" stroke-linejoin="round"/>
<path d="M151.908 312.346C152.298 311.883 152.846 311.6 153.434 311.558L153.535 310.664L155.016 310.852L154.903 311.746C155.19 311.839 155.455 311.99 155.684 312.192C155.914 312.394 156.102 312.642 156.239 312.922C156.517 313.562 156.607 314.274 156.497 314.968V315.344L154.791 315.133L154.847 314.627C154.916 314.312 154.872 313.981 154.724 313.698C154.651 313.59 154.555 313.502 154.444 313.438C154.333 313.375 154.21 313.339 154.084 313.333C153.962 313.307 153.835 313.311 153.714 313.346C153.593 313.381 153.481 313.445 153.389 313.533C153.179 313.771 153.06 314.08 153.052 314.404C153.007 314.732 153.037 315.067 153.142 315.38C153.247 315.664 153.386 315.933 153.557 316.179C153.725 316.415 153.983 316.709 154.298 317.073C154.632 317.411 154.939 317.777 155.218 318.167C155.464 318.523 155.65 318.921 155.767 319.343C155.905 319.843 155.94 320.368 155.868 320.883C155.815 321.588 155.561 322.26 155.139 322.812C154.941 323.043 154.701 323.23 154.433 323.364C154.166 323.497 153.875 323.573 153.579 323.588L153.478 324.458L151.997 324.27L152.11 323.4C151.821 323.309 151.554 323.158 151.322 322.955C151.091 322.753 150.901 322.505 150.763 322.224C150.478 321.586 150.388 320.871 150.505 320.178L150.595 319.355L152.3 319.566L152.188 320.507C152.098 321.283 152.368 321.683 152.985 321.801C153.602 321.918 153.961 321.53 154.051 320.754C154.095 320.422 154.065 320.083 153.961 319.766C153.861 319.48 153.721 319.21 153.546 318.967C153.316 318.657 153.069 318.363 152.805 318.085C152.474 317.74 152.166 317.37 151.885 316.979C151.643 316.622 151.461 316.224 151.347 315.803C151.192 315.22 151.166 314.608 151.271 314.013C151.376 313.418 151.609 312.855 151.953 312.369L151.908 312.346Z" fill="#263238"/>
<path d="M125.844 330.033C126.184 332.664 125.773 335.343 124.661 337.729C123.55 340.116 121.788 342.104 119.599 343.441C117.41 344.778 114.892 345.405 112.363 345.243C109.834 345.08 107.407 344.135 105.39 342.528C103.374 340.92 101.857 338.722 101.032 336.211C100.207 333.7 100.111 330.989 100.755 328.421C101.4 325.852 102.757 323.542 104.654 321.782C106.552 320.021 108.904 318.89 111.415 318.531C113.083 318.293 114.779 318.401 116.407 318.85C118.035 319.299 119.563 320.08 120.903 321.148C122.243 322.216 123.369 323.551 124.217 325.075C125.065 326.6 125.617 328.284 125.844 330.033Z" fill="white"/>
<path d="M125.844 330.033C126.184 332.664 125.773 335.343 124.661 337.729C123.55 340.116 121.788 342.104 119.599 343.441C117.41 344.778 114.892 345.405 112.363 345.243C109.834 345.08 107.407 344.135 105.39 342.528C103.374 340.92 101.857 338.722 101.032 336.211C100.207 333.7 100.111 330.989 100.755 328.421C101.4 325.852 102.757 323.542 104.654 321.782C106.552 320.021 108.904 318.89 111.415 318.531C113.083 318.293 114.779 318.401 116.407 318.85C118.035 319.299 119.563 320.08 120.903 321.148C122.243 322.216 123.369 323.551 124.217 325.075C125.065 326.6 125.617 328.284 125.844 330.033V330.033Z" stroke="#263238" stroke-linecap="round" stroke-linejoin="round"/>
<path d="M123.42 330.374C123.687 332.497 123.348 334.656 122.445 336.577C121.543 338.499 120.118 340.097 118.35 341.171C116.582 342.245 114.55 342.745 112.511 342.61C110.471 342.475 108.516 341.71 106.891 340.411C105.266 339.113 104.045 337.339 103.381 335.313C102.716 333.288 102.639 331.102 103.159 329.031C103.679 326.959 104.773 325.096 106.302 323.675C107.831 322.255 109.727 321.34 111.751 321.048C113.102 320.853 114.477 320.94 115.796 321.303C117.114 321.667 118.352 322.3 119.436 323.167C120.521 324.034 121.431 325.117 122.115 326.353C122.798 327.59 123.242 328.957 123.42 330.374V330.374Z" stroke="#263238" stroke-linecap="round" stroke-linejoin="round"/>
<path d="M110.36 327.01C110.625 326.455 111.089 326.032 111.65 325.834L111.527 324.941L112.997 324.729L113.12 325.623C113.715 325.647 114.276 325.918 114.68 326.375C115.106 326.918 115.368 327.581 115.432 328.28V328.657L113.726 328.892L113.67 328.398C113.654 328.078 113.531 327.774 113.322 327.54C113.12 327.382 112.867 327.314 112.618 327.349C112.369 327.384 112.142 327.52 111.987 327.728C111.843 328.013 111.803 328.343 111.875 328.657C111.908 328.986 112.02 329.302 112.2 329.574C112.365 329.827 112.566 330.053 112.795 330.244C113.019 330.421 113.322 330.644 113.726 330.903C114.118 331.149 114.493 331.424 114.848 331.726C115.171 331.998 115.444 332.329 115.656 332.702C115.916 333.145 116.077 333.643 116.127 334.16C116.256 334.855 116.173 335.575 115.892 336.218C115.756 336.497 115.57 336.744 115.342 336.946C115.115 337.148 114.852 337.3 114.568 337.394L114.68 338.276L113.21 338.476L113.098 337.606C112.8 337.597 112.506 337.526 112.234 337.397C111.963 337.267 111.718 337.083 111.516 336.853C111.086 336.31 110.827 335.64 110.775 334.937L110.663 334.125L112.368 333.878L112.492 334.819C112.582 335.595 112.952 335.995 113.614 335.854C114.276 335.713 114.489 335.325 114.388 334.548C114.355 334.219 114.243 333.903 114.063 333.631C113.897 333.378 113.697 333.152 113.468 332.961C113.244 332.784 112.941 332.561 112.537 332.302C112.145 332.06 111.77 331.788 111.415 331.491C111.095 331.211 110.822 330.877 110.607 330.503C110.317 329.972 110.144 329.379 110.101 328.768C110.058 328.158 110.147 327.545 110.36 326.975V327.01Z" fill="#263238"/>
<path d="M125.103 394.266C125.304 396.914 124.751 399.564 123.514 401.883C122.277 404.201 120.413 406.083 118.156 407.29C115.899 408.498 113.351 408.977 110.834 408.667C108.317 408.357 105.944 407.271 104.016 405.548C102.088 403.824 100.691 401.54 100.001 398.985C99.3109 396.429 99.3596 393.716 100.141 391.189C100.922 388.663 102.4 386.435 104.389 384.789C106.378 383.143 108.788 382.152 111.314 381.941C112.992 381.8 114.68 382.006 116.281 382.55C117.883 383.093 119.366 383.961 120.647 385.106C121.928 386.251 122.981 387.649 123.745 389.221C124.51 390.793 124.971 392.507 125.103 394.266Z" fill="white"/>
<path d="M125.103 394.266C125.304 396.914 124.751 399.564 123.514 401.883C122.277 404.201 120.413 406.083 118.156 407.29C115.899 408.498 113.351 408.977 110.834 408.667C108.317 408.357 105.944 407.271 104.016 405.548C102.088 403.824 100.691 401.54 100.001 398.985C99.3109 396.429 99.3596 393.716 100.141 391.189C100.922 388.663 102.4 386.435 104.389 384.789C106.378 383.143 108.788 382.152 111.314 381.941C112.992 381.8 114.68 382.006 116.281 382.55C117.883 383.093 119.366 383.961 120.647 385.106C121.928 386.251 122.981 387.649 123.745 389.221C124.51 390.793 124.971 392.507 125.103 394.266V394.266Z" stroke="#263238" stroke-linecap="round" stroke-linejoin="round"/>
<path d="M122.646 394.466C122.815 396.604 122.374 398.746 121.381 400.622C120.388 402.498 118.885 404.023 117.065 405.003C115.244 405.984 113.187 406.377 111.154 406.131C109.12 405.886 107.202 405.014 105.641 403.625C104.081 402.237 102.949 400.394 102.388 398.331C101.827 396.268 101.862 394.077 102.49 392.035C103.118 389.992 104.309 388.191 105.914 386.859C107.519 385.528 109.464 384.725 111.504 384.552C114.235 384.324 116.94 385.24 119.028 387.098C121.116 388.955 122.417 391.605 122.646 394.466V394.466Z" stroke="#263238" stroke-linecap="round" stroke-linejoin="round"/>
<path d="M109.777 390.432C110.071 389.896 110.554 389.503 111.123 389.338L111.056 388.445L112.537 388.315L112.604 389.209C113.194 389.267 113.739 389.567 114.119 390.044C114.517 390.612 114.743 391.292 114.769 391.996V392.372L113.064 392.514V392.02C113.072 391.698 112.968 391.385 112.772 391.138C112.579 390.967 112.33 390.883 112.078 390.903C111.827 390.922 111.593 391.045 111.426 391.243C111.265 391.522 111.205 391.852 111.258 392.172C111.281 392.501 111.377 392.819 111.538 393.102C111.691 393.364 111.88 393.602 112.099 393.807C112.384 394.066 112.683 394.305 112.997 394.524C113.388 394.793 113.763 395.088 114.119 395.406C114.421 395.702 114.675 396.048 114.87 396.43C115.102 396.892 115.236 397.401 115.263 397.923C115.349 398.623 115.228 399.333 114.915 399.958C114.765 400.224 114.565 400.457 114.328 400.643C114.091 400.829 113.822 400.963 113.535 401.039L113.603 401.921L112.122 402.051L112.054 401.169C111.757 401.142 111.468 401.053 111.204 400.908C110.94 400.762 110.707 400.563 110.517 400.322C110.123 399.753 109.9 399.073 109.878 398.37L109.81 397.547L111.527 397.394L111.594 398.346C111.594 399.134 111.998 399.522 112.615 399.44C113.232 399.358 113.524 398.97 113.468 398.194C113.445 397.862 113.349 397.54 113.187 397.253C113.035 396.99 112.846 396.752 112.626 396.547C112.413 396.359 112.122 396.124 111.729 395.842C111.334 395.573 110.959 395.275 110.607 394.948C110.301 394.653 110.043 394.307 109.844 393.925C109.616 393.465 109.482 392.96 109.451 392.443C109.357 391.753 109.471 391.05 109.777 390.432Z" fill="#263238"/>
<path d="M199.795 371.193C198.73 373.603 197.007 375.628 194.843 377.012C192.68 378.396 190.174 379.077 187.641 378.968C185.109 378.858 182.665 377.965 180.617 376.399C178.569 374.834 177.011 372.667 176.138 370.173C175.265 367.679 175.118 364.97 175.714 362.388C176.311 359.807 177.624 357.468 179.489 355.669C181.353 353.87 183.685 352.69 186.189 352.28C188.693 351.87 191.257 352.247 193.556 353.364C196.639 354.862 199.028 357.581 200.197 360.925C201.367 364.268 201.222 367.961 199.795 371.193Z" fill="white"/>
<path d="M199.795 371.193C198.73 373.603 197.007 375.628 194.843 377.012C192.68 378.396 190.174 379.077 187.641 378.968C185.109 378.858 182.665 377.965 180.617 376.399C178.569 374.834 177.011 372.667 176.138 370.173C175.265 367.679 175.118 364.97 175.714 362.388C176.311 359.807 177.624 357.468 179.489 355.669C181.353 353.87 183.685 352.69 186.189 352.28C188.693 351.87 191.257 352.247 193.556 353.364C196.639 354.862 199.028 357.581 200.197 360.925C201.367 364.268 201.222 367.961 199.795 371.193V371.193Z" stroke="#263238" stroke-linecap="round" stroke-linejoin="round"/>
<path d="M197.562 370.111C196.701 372.055 195.308 373.689 193.562 374.804C191.815 375.92 189.792 376.467 187.748 376.378C185.704 376.289 183.732 375.566 182.08 374.302C180.428 373.038 179.17 371.289 178.466 369.276C177.762 367.263 177.643 365.077 178.125 362.993C178.606 360.909 179.666 359.022 181.171 357.569C182.675 356.117 184.557 355.165 186.578 354.833C188.598 354.501 190.668 354.804 192.524 355.705C193.759 356.302 194.869 357.149 195.791 358.197C196.713 359.245 197.428 360.473 197.896 361.812C198.364 363.15 198.576 364.572 198.518 365.996C198.461 367.42 198.136 368.819 197.562 370.111V370.111Z" stroke="#263238" stroke-linecap="round" stroke-linejoin="round"/>
<path d="M188.249 359.927C188.756 359.612 189.361 359.519 189.932 359.668L190.291 358.856L191.638 359.515L191.279 360.326C191.767 360.68 192.101 361.221 192.21 361.832C192.29 362.531 192.169 363.24 191.862 363.866L191.705 364.207L190.157 363.455L190.347 362.996C190.504 362.716 190.559 362.386 190.505 362.067C190.469 361.941 190.406 361.825 190.32 361.729C190.234 361.634 190.128 361.56 190.011 361.514C189.897 361.457 189.772 361.427 189.646 361.427C189.52 361.427 189.395 361.457 189.282 361.514C189.018 361.677 188.816 361.931 188.709 362.232C188.569 362.531 188.5 362.862 188.507 363.196C188.518 363.5 188.571 363.801 188.664 364.09C188.765 364.372 188.911 364.736 189.113 365.172C189.324 365.605 189.508 366.053 189.663 366.512C189.789 366.93 189.85 367.367 189.843 367.806C189.828 368.324 189.709 368.832 189.495 369.299C189.235 369.954 188.793 370.511 188.227 370.899C187.971 371.053 187.689 371.154 187.396 371.194C187.104 371.235 186.806 371.214 186.521 371.134L186.162 371.934L184.816 371.275L185.13 370.44C184.885 370.265 184.676 370.041 184.514 369.78C184.352 369.52 184.241 369.229 184.188 368.923C184.105 368.22 184.226 367.507 184.535 366.877L184.872 366.124L186.432 366.888L186.05 367.747C185.736 368.453 185.859 368.923 186.432 369.229C187.004 369.534 187.441 369.229 187.756 368.57C187.888 368.272 187.953 367.946 187.946 367.618C187.941 367.309 187.888 367.003 187.789 366.712C187.661 366.342 187.512 365.981 187.34 365.63C187.126 365.198 186.942 364.75 186.791 364.29C186.663 363.876 186.606 363.442 186.622 363.008C186.629 362.489 186.748 361.978 186.97 361.514C187.235 360.862 187.681 360.309 188.249 359.927Z" fill="#263238"/>
<path d="M180.822 377.308C180.822 378.143 192.771 369.076 204.384 374.85C204.384 374.85 192.243 386.41 180.496 379.225C168.749 372.039 170.398 354.411 170.398 354.411C170.398 354.411 181.764 362.725 180.822 377.308Z" fill="#42EA72" stroke="#263238" stroke-linecap="round" stroke-linejoin="round"/>
<path d="M153.467 331.479C153.849 332.208 159.234 317.755 172.025 315.991C172.025 315.991 167.806 332.608 154.219 333.243C140.631 333.878 132.901 318.132 132.901 318.132C132.901 318.132 146.701 318.696 153.467 331.479Z" fill="#42EA72" stroke="#263238" stroke-linecap="round" stroke-linejoin="round"/>
<path d="M114.59 346.638C115.084 347.296 118.225 332.126 130.579 328.269C130.579 328.269 128.918 345.379 115.611 348.261C102.304 351.142 92.2959 336.865 92.2959 336.865C92.2959 336.865 105.984 335.16 114.59 346.638Z" fill="#42EA72" stroke="#263238" stroke-linecap="round" stroke-linejoin="round"/>
<path d="M117.182 410.659C117.777 411.212 118.394 395.7 129.939 389.691C129.939 389.691 131.061 406.849 118.45 412.035C105.838 417.221 93.6199 404.979 93.6199 404.979C93.6199 404.979 106.837 400.851 117.182 410.659Z" fill="#42EA72" stroke="#263238" stroke-linecap="round" stroke-linejoin="round"/>
<path d="M282.183 452.243H229.449C229.449 452.243 236.562 508.408 238.616 524.661C238.986 527.612 241.23 529.071 243.945 529.071H317.055C319.77 529.071 322.014 527.612 322.384 524.661C324.449 508.408 331.551 452.243 331.551 452.243H282.183Z" fill="#263238"/>
<path d="M227.497 447.539H333.503C334.17 447.539 334.809 447.816 335.28 448.31C335.752 448.804 336.017 449.474 336.017 450.173V454.324C336.017 455.02 335.753 455.687 335.284 456.178C334.814 456.67 334.178 456.947 333.514 456.947H227.497C226.83 456.947 226.191 456.669 225.72 456.175C225.248 455.681 224.983 455.011 224.983 454.312V450.161C224.983 449.816 225.048 449.474 225.175 449.155C225.301 448.836 225.487 448.546 225.72 448.302C225.954 448.059 226.231 447.866 226.536 447.735C226.841 447.604 227.167 447.537 227.497 447.539Z" fill="#263238"/>
<path d="M235.07 456.947H288.556" stroke="white" stroke-linecap="round" stroke-linejoin="round"/>
<path d="M295.288 456.947H299.406" stroke="white" stroke-linecap="round" stroke-linejoin="round"/>
<path d="M324.09 456.947H316.606" stroke="white" stroke-linecap="round" stroke-linejoin="round"/>
<path d="M239.188 475.363H260.136" stroke="white" stroke-linecap="round" stroke-linejoin="round"/>
<path d="M272.096 475.363H277.706" stroke="white" stroke-linecap="round" stroke-linejoin="round"/>
<path d="M322.586 475.363H302.39" stroke="white" stroke-linecap="round" stroke-linejoin="round"/>
<path d="M320.342 490.651H316.606" stroke="white" stroke-linecap="round" stroke-linejoin="round"/>
<path d="M260.136 490.651H252.282" stroke="white" stroke-linecap="round" stroke-linejoin="round"/>
<path d="M297.341 505.551H310.244" stroke="white" stroke-linecap="round" stroke-linejoin="round"/>
<path d="M267.238 505.551H247.042" stroke="white" stroke-linecap="round" stroke-linejoin="round"/>
<path d="M242.924 518.875H249.656" stroke="white" stroke-linecap="round" stroke-linejoin="round"/>
<path d="M260.136 518.875H299.406" stroke="white" stroke-linecap="round" stroke-linejoin="round"/>
<path d="M318.48 518.875H312.488" stroke="white" stroke-linecap="round" stroke-linejoin="round"/>
<path d="M299.765 488.299C299.767 492.293 298.639 496.198 296.524 499.52C294.408 502.842 291.4 505.432 287.88 506.962C284.36 508.492 280.486 508.894 276.749 508.116C273.011 507.338 269.577 505.416 266.882 502.592C264.187 499.769 262.351 496.171 261.606 492.254C260.862 488.337 261.243 484.276 262.701 480.586C264.159 476.896 266.628 473.742 269.796 471.522C272.964 469.303 276.689 468.119 280.5 468.119C285.607 468.119 290.506 470.244 294.118 474.028C297.731 477.813 299.762 482.946 299.765 488.299Z" fill="#42EA72" stroke="#263238" stroke-linecap="round" stroke-linejoin="round"/>
<path d="M296.489 488.299C296.495 491.615 295.563 494.858 293.811 497.619C292.058 500.379 289.563 502.532 286.642 503.806C283.721 505.08 280.505 505.417 277.402 504.774C274.298 504.132 271.446 502.538 269.207 500.196C266.967 497.854 265.441 494.868 264.821 491.616C264.202 488.365 264.516 484.993 265.726 481.929C266.935 478.865 268.984 476.246 271.614 474.403C274.244 472.56 277.337 471.576 280.5 471.576C284.734 471.579 288.794 473.341 291.791 476.475C294.787 479.61 296.477 483.861 296.489 488.299V488.299Z" stroke="#263238" stroke-linecap="round" stroke-linejoin="round"/>
<path d="M280.5 478.832L275.788 483.724V480.396H274.295V485.276L271.737 487.934H273.981V496.013H287.019V487.934H289.263L280.5 478.832Z" fill="white" stroke="#263238" stroke-linecap="round" stroke-linejoin="round"/>
<path d="M281.499 458.052C281.499 458.052 288.231 444.528 272.096 432.768C255.962 421.008 252.461 408.825 255.053 399.628" stroke="#263238" stroke-width="3" stroke-linecap="round" stroke-linejoin="round"/>
<path d="M278.828 439.295C278.828 439.295 276.943 430.487 291.698 424.277C306.452 418.068 308.651 399.581 308.651 399.581" stroke="#263238" stroke-width="3" stroke-linecap="round" stroke-linejoin="round"/>
<path d="M263.266 384.858C265.633 384.858 265.218 400.428 254.29 403.368C254.29 403.368 248.972 401.616 248.13 394.113C247.807 392.086 248.025 390.005 248.76 388.1C249.495 386.195 250.717 384.54 252.293 383.317C252.974 385.766 253.903 388.132 255.064 390.373C255.064 390.373 258.778 384.881 263.266 384.858Z" fill="#42EA72" stroke="#263238" stroke-linecap="round" stroke-linejoin="round"/>
<path d="M255.053 390.361C255.053 390.361 252.035 392.996 254.223 397.782L255.053 390.361Z" fill="#42EA72"/>
<path d="M255.053 390.361C255.053 390.361 252.035 392.996 254.223 397.782" stroke="#263238" stroke-linecap="round" stroke-linejoin="round"/>
<path d="M307.888 403.368C307.888 403.368 300.034 395.877 302.39 390.361C303.986 386.907 306.592 384.077 309.829 382.282C309.829 382.282 311.512 385.704 312.488 387.339L316.516 384.858C316.516 384.858 324.752 401.604 307.888 403.368Z" fill="#42EA72" stroke="#263238" stroke-linecap="round" stroke-linejoin="round"/>
<path d="M312.488 387.339C312.488 387.339 317.403 395.571 311.232 399.628L312.488 387.339Z" fill="#42EA72"/>
<path d="M312.488 387.339C312.488 387.339 317.403 395.571 311.232 399.628" stroke="#263238" stroke-linecap="round" stroke-linejoin="round"/>
<path d="M284.046 428.758C284.046 428.758 276.45 408.766 282.744 386.351" stroke="#263238" stroke-width="3" stroke-linecap="round" stroke-linejoin="round"/>
<path d="M283.103 386.481C283.103 386.481 293.201 383.082 293.201 377.073C293.122 373.238 291.875 369.529 289.644 366.489C289.644 366.489 286.75 368.841 285.213 369.934L282.531 365.924C282.531 365.924 268.461 377.496 283.103 386.481Z" fill="#42EA72" stroke="#263238" stroke-linecap="round" stroke-linejoin="round"/>
<path d="M285.257 369.899C285.257 369.899 277.527 375.273 281.544 381.659L285.257 369.899Z" fill="#42EA72"/>
<path d="M285.257 369.899C285.257 369.899 277.527 375.273 281.544 381.659" stroke="#263238" stroke-linecap="round" stroke-linejoin="round"/>
<path d="M416.823 452.243H364.089C364.089 452.243 371.191 508.408 373.256 524.661C373.626 527.612 375.87 529.071 378.585 529.071H451.695C454.41 529.071 456.654 527.612 457.024 524.661C459.089 508.408 466.191 452.243 466.191 452.243H416.823Z" fill="#263238"/>
<path d="M362.137 447.539H468.143C468.807 447.539 469.443 447.815 469.913 448.307C470.382 448.799 470.645 449.466 470.645 450.161V454.312C470.645 455.008 470.382 455.675 469.913 456.167C469.443 456.659 468.807 456.935 468.143 456.935H362.137C361.47 456.935 360.831 456.657 360.36 456.163C359.888 455.669 359.624 454.999 359.624 454.301V450.149C359.625 449.805 359.691 449.464 359.818 449.147C359.945 448.829 360.131 448.541 360.364 448.298C360.598 448.056 360.874 447.864 361.178 447.734C361.483 447.603 361.808 447.537 362.137 447.539Z" fill="#263238"/>
<path d="M369.71 456.947H423.196" stroke="white" stroke-linecap="round" stroke-linejoin="round"/>
<path d="M429.928 456.947H434.046" stroke="white" stroke-linecap="round" stroke-linejoin="round"/>
<path d="M458.73 456.947H451.246" stroke="white" stroke-linecap="round" stroke-linejoin="round"/>
<path d="M373.828 475.363H394.776" stroke="white" stroke-linecap="round" stroke-linejoin="round"/>
<path d="M406.736 475.363H412.346" stroke="white" stroke-linecap="round" stroke-linejoin="round"/>
<path d="M457.226 475.363H437.03" stroke="white" stroke-linecap="round" stroke-linejoin="round"/>
<path d="M454.982 490.651H451.246" stroke="white" stroke-linecap="round" stroke-linejoin="round"/>
<path d="M394.776 490.651H386.922" stroke="white" stroke-linecap="round" stroke-linejoin="round"/>
<path d="M431.981 505.551H444.884" stroke="white" stroke-linecap="round" stroke-linejoin="round"/>
<path d="M401.878 505.551H381.682" stroke="white" stroke-linecap="round" stroke-linejoin="round"/>
<path d="M377.564 518.875H384.296" stroke="white" stroke-linecap="round" stroke-linejoin="round"/>
<path d="M394.776 518.875H434.046" stroke="white" stroke-linecap="round" stroke-linejoin="round"/>
<path d="M453.12 518.875H447.128" stroke="white" stroke-linecap="round" stroke-linejoin="round"/>
<path d="M434.405 488.299C434.407 492.293 433.279 496.198 431.163 499.52C429.048 502.842 426.04 505.432 422.52 506.962C419 508.492 415.126 508.894 411.389 508.116C407.651 507.338 404.217 505.416 401.522 502.592C398.826 499.769 396.99 496.171 396.246 492.254C395.502 488.337 395.883 484.276 397.341 480.586C398.798 476.896 401.268 473.742 404.436 471.522C407.604 469.303 411.329 468.119 415.14 468.119C420.247 468.119 425.146 470.244 428.758 474.028C432.371 477.813 434.402 482.946 434.405 488.299Z" fill="#42EA72" stroke="#263238" stroke-linecap="round" stroke-linejoin="round"/>
<path d="M422.5 486.088V493.144C422.5 493.144 421.087 495.613 415.14 495.613C409.194 495.613 407.78 493.144 407.78 493.144V486.088" fill="white"/>
<path d="M422.5 486.088V493.144C422.5 493.144 421.087 495.613 415.14 495.613C409.194 495.613 407.78 493.144 407.78 493.144V486.088" stroke="#263238" stroke-linecap="round" stroke-linejoin="round"/>
<path d="M415.14 480.996L425.35 484.971L415.14 488.946L404.93 484.971L415.14 480.996Z" fill="white" stroke="#263238" stroke-linecap="round" stroke-linejoin="round"/>
<path d="M415.14 484.971L419.415 487.287V497.954" stroke="#263238" stroke-linecap="round" stroke-linejoin="round"/>
<path d="M431.129 488.299C431.135 491.615 430.203 494.858 428.45 497.619C426.698 500.379 424.203 502.532 421.282 503.806C418.361 505.08 415.145 505.417 412.042 504.774C408.938 504.132 406.086 502.538 403.846 500.196C401.607 497.854 400.081 494.868 399.461 491.616C398.842 488.365 399.156 484.993 400.365 481.929C401.575 478.865 403.624 476.246 406.254 474.403C408.884 472.56 411.976 471.576 415.14 471.576C419.374 471.579 423.434 473.341 426.431 476.475C429.427 479.61 431.117 483.861 431.129 488.299V488.299Z" stroke="#263238" stroke-linecap="round" stroke-linejoin="round"/>
<path d="M415.14 462.556C415.14 462.556 410.035 448.844 415.14 431.204" stroke="#263238" stroke-width="3" stroke-linecap="round" stroke-linejoin="round"/>
<path d="M415.14 416.304C415.14 416.304 431.129 427.676 412.896 439.036C412.896 439.036 394.776 427.676 415.14 416.304Z" fill="#42EA72" stroke="#263238" stroke-linecap="round" stroke-linejoin="round"/>
<path d="M415.14 416.304C415.14 416.304 417.889 420.62 415.14 424.536C414.327 425.832 413.767 427.284 413.492 428.807C413.216 430.331 413.231 431.897 413.536 433.415" stroke="#263238" stroke-linecap="round" stroke-linejoin="round"/>
</svg>
